<?xml version="1.0" encoding="UTF-8"?>
<!-- Generated by Pixelmator Pro 3.7.1 -->
<svg width="1366" height="768" viewBox="0 0 1366 768" xmlns="http://www.w3.org/2000/svg" xmlns:xlink="http://www.w3.org/1999/xlink">
    <linearGradient id="linearGradient1" x1="-171" y1="340.064697" x2="1566" y2="340.064697" gradientUnits="userSpaceOnUse">
        <stop offset="0.001222" stop-color="#9243ff" stop-opacity="1"/>
        <stop offset="0.999537" stop-color="#4b01ff" stop-opacity="1"/>
    </linearGradient>
    <path id="Wave-copy" fill="url(#linearGradient1)" fill-rule="evenodd" stroke="none" opacity="0.4" d="M -146 320 C -146 320 247.699432 427.235168 710 193 C 1172.300537 -41.235168 1566 29 1566 29 L 1480 282 C 1480 282 1029.423828 465.402161 794 523 C 478.369873 600.220764 -171 661 -171 661 L -146 320 Z"/>
    <linearGradient id="linearGradient2" x1="209" y1="695.125904" x2="1553.516724" y2="695.125904" gradientUnits="userSpaceOnUse">
        <stop offset="0.001222" stop-color="#9243ff" stop-opacity="1"/>
        <stop offset="0.999537" stop-color="#4b01ff" stop-opacity="1"/>
    </linearGradient>
    <path id="Wave-copy-2" fill="url(#linearGradient2)" fill-rule="evenodd" stroke="none" opacity="0.4" d="M 209 785 C 209 785 761.699463 826.235168 1224 592 C 1686.300537 357.764801 1527 631 1527 631 L 1436 784 C 1436 784 1409.423828 794.402161 1174 852 C 858.369873 929.220764 421 874 421 874 L 209 785 Z"/>
    <g id="Planet">
        <linearGradient id="linearGradient3" x1="441.449815" y1="349.625174" x2="170.550185" y2="696.360889" gradientUnits="userSpaceOnUse">
            <stop offset="0" stop-color="#ff0167" stop-opacity="1"/>
            <stop offset="0.640487" stop-color="#6800f2" stop-opacity="1"/>
        </linearGradient>
        <path id="Ring-SMall-copy" fill="none" stroke="url(#linearGradient3)" stroke-width="8.763763" stroke-linecap="round" stroke-linejoin="round" opacity="0.4" d="M 526.006958 522.993042 C 526.006958 401.486542 427.5065 302.986053 306 302.986053 C 184.4935 302.986053 85.993034 401.486542 85.993034 522.993042 C 85.993034 644.499512 184.4935 743 306 743 C 427.5065 743 526.006958 644.499512 526.006958 522.993042 Z"/>
        <linearGradient id="linearGradient4" x1="431.896361" y1="362.504194" x2="180.27133" y2="684.168248" gradientUnits="userSpaceOnUse">
            <stop offset="0" stop-color="#ff0167" stop-opacity="1"/>
            <stop offset="0.640487" stop-color="#6800f2" stop-opacity="1"/>
        </linearGradient>
        <path id="Ring-Mini-copy" fill="none" stroke="url(#linearGradient4)" stroke-width="2.190941" stroke-linecap="round" stroke-linejoin="round" opacity="0.4" d="M 510.437225 523.336243 C 510.437225 410.615601 418.945099 319.237457 306.083832 319.237457 C 193.22258 319.237457 101.730446 410.615601 101.730446 523.336243 C 101.730446 636.056885 193.22258 727.434998 306.083832 727.434998 C 418.945099 727.434998 510.437225 636.056885 510.437225 523.336243 Z"/>
        <linearGradient id="linearGradient5" x1="405.894391" y1="395.044007" x2="205.428665" y2="651.628435" gradientUnits="userSpaceOnUse">
            <stop offset="0" stop-color="#ff0167" stop-opacity="1"/>
            <stop offset="0.640487" stop-color="#6800f2" stop-opacity="1"/>
        </linearGradient>
        <path id="Ring-copy" fill="none" stroke="url(#linearGradient5)" stroke-width="47.386116" stroke-linecap="round" stroke-linejoin="round" opacity="0.3" d="M 468.466705 523.336182 C 468.466705 433.421417 395.576324 360.531067 305.66153 360.531067 C 215.746719 360.531067 142.856369 433.421417 142.856369 523.336182 C 142.856369 613.251038 215.746719 686.141357 305.66153 686.141357 C 395.576324 686.141357 468.466705 613.251038 468.466705 523.336182 Z"/>
        <linearGradient id="linearGradient6" x1="402.579238" y1="399.349142" x2="209.420762" y2="647.415994" gradientUnits="userSpaceOnUse">
            <stop offset="0.332634" stop-color="#a500f2" stop-opacity="1"/>
            <stop offset="0.615021" stop-color="#ff0194" stop-opacity="1"/>
        </linearGradient>
        <path id="Planet-copy" fill="url(#linearGradient6)" fill-rule="evenodd" stroke="none" d="M 463.199982 523.382568 C 463.199982 436.563416 392.819153 366.182587 306 366.182587 C 219.180832 366.182587 148.800003 436.563416 148.800003 523.382568 C 148.800003 610.201721 219.180832 680.582581 306 680.582581 C 392.819153 680.582581 463.199982 610.201721 463.199982 523.382568 Z"/>
        <mask id="mask1" maskUnits="userSpaceOnUse" maskContentUnits="userSpaceOnUse" mask-type="alpha">
            <linearGradient id="linearGradient7" x1="402.579238" y1="399.349142" x2="209.420762" y2="647.415994" gradientUnits="userSpaceOnUse">
                <stop offset="0.332634" stop-color="#a500f2" stop-opacity="1"/>
                <stop offset="0.615021" stop-color="#ff0194" stop-opacity="1"/>
            </linearGradient>
            <path id="path1" fill="url(#linearGradient7)" fill-rule="evenodd" stroke="none" d="M 463.199982 523.382568 C 463.199982 436.563416 392.819153 366.182587 306 366.182587 C 219.180832 366.182587 148.800003 436.563416 148.800003 523.382568 C 148.800003 610.201721 219.180832 680.582581 306 680.582581 C 392.819153 680.582581 463.199982 610.201721 463.199982 523.382568 Z"/>
        </mask>
        <g id="Group" mask="url(#mask1)">
            <g id="Terrain">
                <path id="Path" fill="#ffffff" fill-rule="evenodd" stroke="none" opacity="0.2" d="M 170 432 C 170 432 262.669952 515.164917 352 485 C 441.330048 454.835114 473 461 473 461 L 484 532 C 484 532 321.324005 596.056396 239 529 C 156.675995 461.943604 149 440 149 440 L 170 432 Z"/>
                <path id="path2" fill="#ffffff" fill-rule="evenodd" stroke="none" opacity="0.2" d="M 427 635 C 427 635 335.99826 616.201294 275 632 C 214.00174 647.798706 193 650 193 650 L 323 698 L 427 635 Z"/>
                <path id="path3" fill="#ffffff" fill-rule="evenodd" stroke="none" opacity="0.2" d="M 138 538 C 138 538 181.994598 522.759338 222 560 C 262.005402 597.240662 308.638062 611.460999 223 604 C 137.361923 596.539001 141 618 141 618 L 138 538 Z"/>
                <path id="path4" fill="#ffffff" fill-rule="evenodd" stroke="none" opacity="0.2" d="M 226 384 C 226 384 274.261871 447.735077 350 434 C 425.738129 420.264923 452 406 452 406 L 357 351 L 252 345 L 226 384 Z"/>
                <path id="path5" fill="#ffffff" fill-rule="evenodd" stroke="none" opacity="0.2" d="M 278 475 C 278 475 376.921173 460.949768 405 510 C 433.078827 559.050232 445.542755 543.082092 452 546 C 458.457245 548.917908 578.452942 586.08606 416 592 C 253.547043 597.91394 278 475 278 475 Z"/>
            </g>
        </g>
    </g>
    <g id="Planet-2">
        <linearGradient id="linearGradient8" x1="671.856331" y1="394.752512" x2="694.143669" y2="-106.766449" gradientUnits="userSpaceOnUse">
            <stop offset="0" stop-color="#ff0167" stop-opacity="1"/>
            <stop offset="0.640487" stop-color="#6800f2" stop-opacity="1"/>
        </linearGradient>
        <path id="path6" fill="none" stroke="url(#linearGradient8)" stroke-width="8.763763" stroke-linecap="round" stroke-linejoin="round" opacity="0.4" d="M 934.006958 143.993042 C 934.006958 5.365723 821.627319 -107.013916 683 -107.013916 C 544.372681 -107.013916 431.993042 5.365723 431.993042 143.993042 C 431.993042 282.620361 544.372681 395 683 395 C 821.627319 395 934.006958 282.620361 934.006958 143.993042 Z"/>
        <linearGradient id="linearGradient9" x1="674.011401" y1="348.233756" x2="692.15629" y2="-59.561314" gradientUnits="userSpaceOnUse">
            <stop offset="0" stop-color="#ff0167" stop-opacity="1"/>
            <stop offset="0.640487" stop-color="#6800f2" stop-opacity="1"/>
        </linearGradient>
        <path id="path7" fill="none" stroke="url(#linearGradient9)" stroke-width="2.190941" stroke-linecap="round" stroke-linejoin="round" opacity="0.4" d="M 887.437256 144.336243 C 887.437256 31.615601 795.945129 -59.762573 683.083862 -59.762573 C 570.222595 -59.762573 478.730438 31.615601 478.730438 144.336243 C 478.730438 257.056854 570.222595 348.434998 683.083862 348.434998 C 795.945129 348.434998 887.437256 257.056854 887.437256 144.336243 Z"/>
        <linearGradient id="linearGradient10" x1="675.040367" y1="315.830743" x2="690.282688" y2="-27.158301" gradientUnits="userSpaceOnUse">
            <stop offset="0" stop-color="#ff0167" stop-opacity="1"/>
            <stop offset="0.640487" stop-color="#6800f2" stop-opacity="1"/>
        </linearGradient>
        <path id="path8" fill="none" stroke="url(#linearGradient10)" stroke-width="47.386116" stroke-linecap="round" stroke-linejoin="round" opacity="0.3" d="M 854.325317 144.336243 C 854.325317 49.528931 777.468811 -27.327515 682.661499 -27.327515 C 587.854248 -27.327515 510.997742 49.528931 510.997742 144.336243 C 510.997742 239.143494 587.854248 316 682.661499 316 C 777.468811 316 854.325317 239.143494 854.325317 144.336243 Z"/>
        <linearGradient id="linearGradient11" x1="817.567284" y1="225.644405" x2="548.432716" y2="63.120731" gradientUnits="userSpaceOnUse">
            <stop offset="0.184248" stop-color="#00f21c" stop-opacity="1"/>
            <stop offset="0.807374" stop-color="#c3ff01" stop-opacity="1"/>
        </linearGradient>
        <path id="path9" fill="url(#linearGradient11)" fill-rule="evenodd" stroke="none" d="M 840.200012 144.382568 C 840.200012 57.563416 769.819153 -12.817444 683 -12.817444 C 596.180847 -12.817444 525.799988 57.563416 525.799988 144.382568 C 525.799988 231.201721 596.180847 301.582581 683 301.582581 C 769.819153 301.582581 840.200012 231.201721 840.200012 144.382568 Z"/>
        <mask id="mask2" maskUnits="userSpaceOnUse" maskContentUnits="userSpaceOnUse" mask-type="alpha">
            <linearGradient id="linearGradient12" x1="817.567284" y1="225.644405" x2="548.432716" y2="63.120731" gradientUnits="userSpaceOnUse">
                <stop offset="0.184248" stop-color="#00f21c" stop-opacity="1"/>
                <stop offset="0.807374" stop-color="#c3ff01" stop-opacity="1"/>
            </linearGradient>
            <path id="path10" fill="url(#linearGradient12)" fill-rule="evenodd" stroke="none" d="M 840.200012 144.382568 C 840.200012 57.563416 769.819153 -12.817444 683 -12.817444 C 596.180847 -12.817444 525.799988 57.563416 525.799988 144.382568 C 525.799988 231.201721 596.180847 301.582581 683 301.582581 C 769.819153 301.582581 840.200012 231.201721 840.200012 144.382568 Z"/>
        </mask>
        <g id="g1" mask="url(#mask2)">
            <g id="g2">
                <path id="path11" fill="#000000" fill-rule="evenodd" stroke="none" opacity="0.2" d="M 563 18 C 563 18 657.610901 -5.349121 704 47 C 750.389099 99.349121 882 61 882 61 L 887 165 C 887 165 726.683777 215.988403 664 135 C 601.316223 54.011597 508 86 508 86 L 563 18 Z"/>
                <path id="path12" fill="#000000" fill-rule="evenodd" stroke="none" opacity="0.2" d="M 502 144 C 502 144 477.496307 190.793274 627 204 C 776.503662 217.206726 812 283 812 283 L 769 303 C 769 303 788.266724 261.775665 698 262 C 607.733276 262.224335 572.748962 244.014465 561 203 C 549.251038 161.985535 376 316 376 316 L 502 144 Z"/>
                <path id="path13" fill="#000000" fill-rule="evenodd" stroke="none" opacity="0.2" d="M 621 112 C 663.661072 121.381409 695.960632 64.170105 749 104 C 802.039368 143.829895 793 177 793 177 C 793 177 786.901184 279.749542 698 194 C 609.098816 108.250427 595 158 595 158 C 595 158 578.338928 102.618591 621 112 Z"/>
            </g>
        </g>
    </g>
    <g id="Planet-3">
        <linearGradient id="linearGradient13" x1="1088.549023" y1="381.315183" x2="1489.450977" y2="562.670879" gradientUnits="userSpaceOnUse">
            <stop offset="0" stop-color="#ff0167" stop-opacity="1"/>
            <stop offset="0.640487" stop-color="#6800f2" stop-opacity="1"/>
        </linearGradient>
        <path id="path14" fill="none" stroke="url(#linearGradient13)" stroke-width="8.763763" stroke-linecap="round" stroke-linejoin="round" opacity="0.4" d="M 1509.006958 471.993042 C 1509.006958 350.486542 1410.50647 251.986084 1289 251.986084 C 1167.49353 251.986084 1068.993042 350.486542 1068.993042 471.993042 C 1068.993042 593.499512 1167.49353 692 1289 692 C 1410.50647 692 1509.006958 593.499512 1509.006958 471.993042 Z"/>
        <linearGradient id="linearGradient14" x1="1102.895023" y1="388.215079" x2="1475.272668" y2="556.457363" gradientUnits="userSpaceOnUse">
            <stop offset="0" stop-color="#ff0167" stop-opacity="1"/>
            <stop offset="0.640487" stop-color="#6800f2" stop-opacity="1"/>
        </linearGradient>
        <path id="path15" fill="none" stroke="url(#linearGradient14)" stroke-width="2.190941" stroke-linecap="round" stroke-linejoin="round" opacity="0.4" d="M 1493.437256 472.336212 C 1493.437256 359.615601 1401.945068 268.237457 1289.083862 268.237457 C 1176.222534 268.237457 1084.730469 359.615601 1084.730469 472.336212 C 1084.730469 585.056885 1176.222534 676.434998 1289.083862 676.434998 C 1401.945068 676.434998 1493.437256 585.056885 1493.437256 472.336212 Z"/>
        <linearGradient id="linearGradient15" x1="1088.2169" y1="381.661245" x2="1489.106155" y2="563.011197" gradientUnits="userSpaceOnUse">
            <stop offset="0" stop-color="#ff0167" stop-opacity="1"/>
            <stop offset="0.640487" stop-color="#6800f2" stop-opacity="1"/>
        </linearGradient>
        <path id="path16" fill="none" stroke="url(#linearGradient15)" stroke-width="47.386116" stroke-linecap="round" stroke-linejoin="round" opacity="0.3" d="M 1508.661499 472.336212 C 1508.661499 350.833557 1410.164185 252.336243 1288.661499 252.336243 C 1167.158936 252.336243 1068.661499 350.833557 1068.661499 472.336212 C 1068.661499 593.838867 1167.158936 692.336243 1288.661499 692.336243 C 1410.164185 692.336243 1508.661499 593.838867 1508.661499 472.336212 Z"/>
        <linearGradient id="linearGradient16" x1="1141.893707" y1="527.804391" x2="1436.106293" y2="416.960745" gradientUnits="userSpaceOnUse">
            <stop offset="0" stop-color="#2f00f2" stop-opacity="1"/>
            <stop offset="0.615021" stop-color="#ad01ff" stop-opacity="1"/>
        </linearGradient>
        <path id="path17" fill="url(#linearGradient16)" fill-rule="evenodd" stroke="none" d="M 1446.199951 472.382568 C 1446.199951 385.563416 1375.819214 315.182587 1289 315.182587 C 1202.180786 315.182587 1131.800049 385.563416 1131.800049 472.382568 C 1131.800049 559.201721 1202.180786 629.582581 1289 629.582581 C 1375.819214 629.582581 1446.199951 559.201721 1446.199951 472.382568 Z"/>
        <mask id="mask3" maskUnits="userSpaceOnUse" maskContentUnits="userSpaceOnUse" mask-type="alpha">
            <linearGradient id="linearGradient17" x1="1141.893707" y1="527.804391" x2="1436.106293" y2="416.960745" gradientUnits="userSpaceOnUse">
                <stop offset="0" stop-color="#2f00f2" stop-opacity="1"/>
                <stop offset="0.615021" stop-color="#ad01ff" stop-opacity="1"/>
            </linearGradient>
            <path id="path18" fill="url(#linearGradient17)" fill-rule="evenodd" stroke="none" d="M 1446.199951 472.382568 C 1446.199951 385.563416 1375.819214 315.182587 1289 315.182587 C 1202.180786 315.182587 1131.800049 385.563416 1131.800049 472.382568 C 1131.800049 559.201721 1202.180786 629.582581 1289 629.582581 C 1375.819214 629.582581 1446.199951 559.201721 1446.199951 472.382568 Z"/>
        </mask>
        <g id="g3" mask="url(#mask3)">
            <g id="g4">
                <path id="path19" fill="#ffffff" fill-rule="evenodd" stroke="none" opacity="0.2" d="M 1187 365 C 1234.948242 360.849365 1276.418457 386.238617 1277 412 C 1277.581543 437.761383 1302.029419 467.813232 1261 467 C 1219.970581 466.186768 1216.479736 474.785034 1216 489 C 1215.520264 503.214966 1174.214966 511.943451 1174 454 C 1173.785034 396.056549 1139.051758 369.150635 1187 365 Z"/>
                <path id="path20" fill="#ffffff" fill-rule="evenodd" stroke="none" opacity="0.2" d="M 1128 478 C 1128 478 1160.245972 465.57724 1175 523 C 1189.754028 580.422791 1225.06604 603.820068 1176 596 C 1126.93396 588.179932 1128 478 1128 478 Z"/>
                <path id="path21" fill="#ffffff" fill-rule="evenodd" stroke="none" opacity="0.2" d="M 1243 523 C 1234.308228 508.799316 1260.524414 451.95871 1324 503 C 1387.475586 554.041321 1379 574 1379 574 C 1379 574 1332.151001 601.603882 1300 558 C 1267.848999 514.396118 1251.691772 537.200684 1243 523 Z"/>
                <path id="path22" fill="#ffffff" fill-rule="evenodd" stroke="none" opacity="0.2" d="M 1236 339 C 1236.364502 314.042725 1257.942017 298.901672 1292 312 C 1326.057983 325.098328 1383.932251 367.386658 1343 377 C 1302.067749 386.613342 1282.739014 380.142151 1272 372 C 1261.260986 363.857849 1235.635498 363.957275 1236 339 Z"/>
                <path id="Path-copy" fill="#ffffff" fill-rule="evenodd" stroke="none" opacity="0.2" d="M 1316 402 C 1316.364502 377.042725 1371.514526 428.218842 1372 375 C 1372.332886 338.511627 1483.932251 416.386658 1443 426 C 1402.067749 435.613342 1318.739014 484.142151 1308 476 C 1297.260986 467.857849 1315.635498 426.957275 1316 402 Z"/>
                <path id="path23" fill="#ffffff" fill-rule="evenodd" stroke="none" opacity="0.2" d="M 1231 561 C 1255.989624 575.291748 1281.322266 548.435059 1293 587 C 1304.677734 625.564941 1339 646 1339 646 L 1218 625 C 1218 625 1206.010376 546.708252 1231 561 Z"/>
                <path id="path24" fill="#ffffff" fill-rule="evenodd" stroke="none" opacity="0.2" d="M 1231 415 C 1231 415 1287.303223 348.739044 1318 408 C 1348.696777 467.260956 1347.383301 496.671844 1329 497 C 1310.616699 497.328156 1235 497 1235 497 C 1235 497 1217.373047 465.175537 1234 445 C 1250.626953 424.824463 1231 415 1231 415 Z"/>
            </g>
        </g>
    </g>
    <g id="Stars-copy">
        <path id="Star" fill="#ffe657" fill-rule="evenodd" stroke="none" d="M 143.5 78 L 135.348679 99.348694 L 114 107.5 L 135.348679 115.651306 L 143.5 137 L 151.651306 115.651306 L 173 107.5 L 151.651306 99.348694 Z"/>
        <path id="Star-copy" fill="#ffe657" fill-rule="evenodd" stroke="none" d="M 103 355 L 96.368423 372.368408 L 79 379 L 96.368423 385.631592 L 103 403 L 109.631577 385.631592 L 127 379 L 109.631577 372.368408 Z"/>
        <path id="Star-copy-2" fill="#ffe657" fill-rule="evenodd" stroke="none" d="M 539 231 L 534.302612 243.302612 L 522 248 L 534.302612 252.697388 L 539 265 L 543.697388 252.697388 L 556 248 L 543.697388 243.302612 Z"/>
        <path id="Star-copy-3" fill="#ffe657" fill-rule="evenodd" stroke="none" d="M 737.5 611 L 729.348694 632.348694 L 708 640.5 L 729.348694 648.651306 L 737.5 670 L 745.651306 648.651306 L 767 640.5 L 745.651306 632.348694 Z"/>
        <path id="Star-copy-11" fill="#ffe657" fill-rule="evenodd" stroke="none" d="M 1117 420 L 1113.684204 428.684204 L 1105 432 L 1113.684204 435.315796 L 1117 444 L 1120.315796 435.315796 L 1129 432 L 1120.315796 428.684204 Z"/>
        <path id="Star-copy-12" fill="#ffe657" fill-rule="evenodd" stroke="none" d="M 1270 69 L 1263.368408 86.368408 L 1246 93 L 1263.368408 99.631592 L 1270 117 L 1276.631592 99.631592 L 1294 93 L 1276.631592 86.368408 Z"/>
        <path id="Star-copy-7" fill="#ffe657" fill-rule="evenodd" stroke="none" d="M 939 78 L 934.302612 90.302612 L 922 95 L 934.302612 99.697388 L 939 112 L 943.697388 99.697388 L 956 95 L 943.697388 90.302612 Z"/>
        <path id="Star-copy-13" fill="#ffe657" fill-rule="evenodd" stroke="none" d="M 856 473 L 851.302612 485.302643 L 839 490 L 851.302612 494.697357 L 856 507 L 860.697388 494.697357 L 873 490 L 860.697388 485.302643 Z"/>
        <path id="Star-copy-8" fill="#ffe657" fill-rule="evenodd" stroke="none" d="M 1005.5 588 L 997.348694 609.348694 L 976 617.5 L 997.348694 625.651306 L 1005.5 647 L 1013.651306 625.651306 L 1035 617.5 L 1013.651306 609.348694 Z"/>
        <path id="Star-copy-9" fill="#ffe657" fill-rule="evenodd" stroke="none" d="M 895 294 L 891.684204 302.684204 L 883 306 L 891.684204 309.315796 L 895 318 L 898.315796 309.315796 L 907 306 L 898.315796 302.684204 Z"/>
        <path id="Star-copy-10" fill="#ffe657" fill-rule="evenodd" stroke="none" d="M 1306 265 L 1302.684204 273.684204 L 1294 277 L 1302.684204 280.315796 L 1306 289 L 1309.315796 280.315796 L 1318 277 L 1309.315796 273.684204 Z"/>
        <path id="Star-copy-4" fill="#ffe657" fill-rule="evenodd" stroke="none" d="M 423 172 L 418.302643 184.302612 L 406 189 L 418.302643 193.697388 L 423 206 L 427.697357 193.697388 L 440 189 L 427.697357 184.302612 Z"/>
        <path id="Star-copy-5" fill="#ffe657" fill-rule="evenodd" stroke="none" d="M 113.5 611 L 105.348686 632.348694 L 84 640.5 L 105.348686 648.651306 L 113.5 670 L 121.651314 648.651306 L 143 640.5 L 121.651314 632.348694 Z"/>
        <path id="Star-copy-6" fill="#ffe657" fill-rule="evenodd" stroke="none" d="M 452 617 L 448.684204 625.684204 L 440 629 L 448.684204 632.315796 L 452 641 L 455.315796 632.315796 L 464 629 L 455.315796 625.684204 Z"/>
    </g>
</svg>
