<?xml version="1.0" encoding="UTF-8"?>
<!-- Generated by Pixelmator Pro 3.7.1 -->
<svg width="1920" height="1080" viewBox="0 0 1920 1080" xmlns="http://www.w3.org/2000/svg">
    <path id="Path" fill="none" stroke="#f625ec" stroke-width="100" stroke-linecap="round" d="M 1313 427 C 1330.265625 362.445068 1287.023438 175.429688 1446 277 C 1604.976563 378.570313 1656 569 1656 569 C 1656 569 1783.179688 991.328125 1402 860 C 1020.820313 728.671875 1274.928223 569.34729 1313 427 Z"/>
    <path id="path1" fill="none" stroke="#f6c025" stroke-width="100" stroke-linecap="round" d="M 215 709 C 399.289063 641.796875 414.28125 402.671875 665 650 C 915.71875 897.328125 566.5 866 483 812 C 399.5 758 457.946289 964.348145 399 968 C 293.30069 974.54834 30.710932 776.203125 215 709 Z"/>
    <path id="path2" fill="none" stroke="#7125f6" stroke-width="100" stroke-linecap="round" d="M 478 626 C 633.262573 734.790039 818.622253 718.103149 988 630 C 1066.465088 589.185791 1132.970459 479.52533 1110 394 C 1088.653564 314.521179 984.291809 260.214111 902 261 C 850.322815 261.49353 824.013611 355.269836 773 347 C 684.606323 332.670471 696.498535 148.666992 608 134.999939 C 534.806885 123.696533 454.644073 193.130798 425 261 C 375.790161 373.664429 377.313873 555.450806 478 626 Z"/>
</svg>
