<?xml version="1.0" encoding="UTF-8"?>
<!-- Generated by Pixelmator Pro 3.7.1 -->
<svg width="1366" height="768" viewBox="0 0 1366 768" xmlns="http://www.w3.org/2000/svg" xmlns:xlink="http://www.w3.org/1999/xlink">
    <linearGradient id="linearGradient1" x1="62" y1="164.062759" x2="1509.516724" y2="164.062759" gradientUnits="userSpaceOnUse">
        <stop offset="0.001222" stop-color="#9243ff" stop-opacity="1"/>
        <stop offset="0.999537" stop-color="#4b01ff" stop-opacity="1"/>
    </linearGradient>
    <path id="Wave-copy-3" fill="url(#linearGradient1)" fill-rule="evenodd" stroke="none" opacity="0.4" d="M 62 -12 C 62 -12 717.699463 55.016663 1180 289.251801 C 1642.300537 523.487 1483 250.251831 1483 250.251831 L 1392 97.251831 C 1392 97.251831 1365.423828 86.84967 1130 29.251831 C 814.369873 -47.968994 375 -56 375 -56 L 62 -12 Z"/>
    <linearGradient id="linearGradient2" x1="-98" y1="583.515381" x2="1532" y2="583.515381" gradientUnits="userSpaceOnUse">
        <stop offset="0.001222" stop-color="#9243ff" stop-opacity="1"/>
        <stop offset="0.999537" stop-color="#4b01ff" stop-opacity="1"/>
    </linearGradient>
    <path id="Path" fill="url(#linearGradient2)" fill-rule="evenodd" stroke="none" opacity="0.4" d="M -55 292 C -55 292 525.28125 242.648438 934 455 C 1342.71875 667.351563 1532 738 1532 738 L 1453 880 C 1453 880 834.695313 606.6875 513 570 C 191.304688 533.3125 -98 584 -98 584 L -55 292 Z"/>
    <g id="Planet-3-copy">
        <linearGradient id="linearGradient3" x1="173.427861" y1="469.786312" x2="1193.10502" y2="931.056853" gradientUnits="userSpaceOnUse" gradientTransform="matrix(-0 1 -1 -0 1383.688023 17.155143)">
            <stop offset="0" stop-color="#ff0167" stop-opacity="1"/>
            <stop offset="0.640487" stop-color="#6800f2" stop-opacity="1"/>
        </linearGradient>
        <path id="Ring-SMall-copy" fill="none" stroke="url(#linearGradient3)" stroke-width="22.29026" stroke-linecap="round" stroke-linejoin="round" opacity="0.4" d="M 683.266479 1260 C 992.31311 1260 1242.844849 1009.468262 1242.844849 700.42157 C 1242.844849 391.374939 992.31311 140.84314 683.266479 140.84314 C 374.219818 140.84314 123.688026 391.374939 123.688026 700.42157 C 123.688026 1009.468262 374.219818 1260 683.266479 1260 Z"/>
        <linearGradient id="linearGradient4" x1="208.830158" y1="486.676274" x2="1155.956945" y2="914.593407" gradientUnits="userSpaceOnUse" gradientTransform="matrix(-0 1 -1 -0 1383.028392 18.241289)">
            <stop offset="0" stop-color="#ff0167" stop-opacity="1"/>
            <stop offset="0.640487" stop-color="#6800f2" stop-opacity="1"/>
        </linearGradient>
        <path id="Ring-Mini-copy" fill="none" stroke="url(#linearGradient4)" stroke-width="5.572565" stroke-linecap="round" stroke-linejoin="round" opacity="0.4" d="M 682.393555 1220.399048 C 969.09375 1220.399048 1201.510132 987.692688 1201.510132 700.634827 C 1201.510132 413.576996 969.09375 180.870605 682.393555 180.870605 C 395.693359 180.870605 163.276962 413.576996 163.276962 700.634827 C 163.276962 987.692688 395.693359 1220.399048 682.393555 1220.399048 Z"/>
        <linearGradient id="linearGradient5" x1="172.571121" y1="468.932728" x2="1192.215982" y2="930.188658" gradientUnits="userSpaceOnUse" gradientTransform="matrix(-0 1 -1 -0 1381.954245 17.167141)">
            <stop offset="0" stop-color="#ff0167" stop-opacity="1"/>
            <stop offset="0.640487" stop-color="#6800f2" stop-opacity="1"/>
        </linearGradient>
        <path id="Ring-copy" fill="none" stroke="url(#linearGradient5)" stroke-width="120.524582" stroke-linecap="round" stroke-linejoin="round" opacity="0.3" d="M 682.393555 1259.121338 C 991.43042 1259.121338 1241.954224 1008.597534 1241.954224 699.560669 C 1241.954224 390.523834 991.43042 140 682.393555 140 C 373.35672 140 122.832855 390.523834 122.832855 699.560669 C 122.832855 1008.597534 373.35672 1259.121338 682.393555 1259.121338 Z"/>
        <linearGradient id="linearGradient6" x1="308.117037" y1="841.384645" x2="1056.434304" y2="559.45852" gradientUnits="userSpaceOnUse" gradientTransform="matrix(-0 1 -1 -0 1382.697253 18.145912)">
            <stop offset="0" stop-color="#2f00f2" stop-opacity="1"/>
            <stop offset="0.615021" stop-color="#ad01ff" stop-opacity="1"/>
        </linearGradient>
        <path id="Planet-copy" fill="url(#linearGradient6)" fill-rule="evenodd" stroke="none" d="M 682.275635 1100.253174 C 903.096497 1100.253174 1082.107178 921.242432 1082.107178 700.42157 C 1082.107178 479.600708 903.096497 300.590027 682.275635 300.590027 C 461.454803 300.590027 282.444122 479.600708 282.444122 700.42157 C 282.444122 921.242432 461.454803 1100.253174 682.275635 1100.253174 Z"/>
        <mask id="mask1" maskUnits="userSpaceOnUse" maskContentUnits="userSpaceOnUse" mask-type="alpha">
            <linearGradient id="linearGradient7" x1="308.117037" y1="841.384645" x2="1056.434304" y2="559.45852" gradientUnits="userSpaceOnUse" gradientTransform="matrix(-0 1 -1 -0 1382.697253 18.145912)">
                <stop offset="0" stop-color="#2f00f2" stop-opacity="1"/>
                <stop offset="0.615021" stop-color="#ad01ff" stop-opacity="1"/>
            </linearGradient>
            <path id="path1" fill="url(#linearGradient7)" fill-rule="evenodd" stroke="none" d="M 682.275635 1100.253174 C 903.096497 1100.253174 1082.107178 921.242432 1082.107178 700.42157 C 1082.107178 479.600708 903.096497 300.590027 682.275635 300.590027 C 461.454803 300.590027 282.444122 479.600708 282.444122 700.42157 C 282.444122 921.242432 461.454803 1100.253174 682.275635 1100.253174 Z"/>
        </mask>
        <g id="Group" mask="url(#mask1)">
            <g id="Terrain">
                <path id="path2" fill="#ffffff" fill-rule="evenodd" stroke="none" opacity="0.2" d="M 955.398682 440.988892 C 965.955627 562.943237 901.37915 668.420959 835.856201 669.900085 C 770.333191 671.379211 693.897583 733.56134 695.966003 629.204773 C 698.034424 524.848145 676.1651 515.96936 640.009949 514.749146 C 603.854797 513.528992 581.654236 408.470703 729.030945 407.92395 C 876.407654 407.377197 944.841736 319.034576 955.398682 440.988892 Z"/>
                <path id="path3" fill="#ffffff" fill-rule="evenodd" stroke="none" opacity="0.2" d="M 667.987976 290.924896 C 667.987976 290.924896 699.584717 372.941162 553.53241 410.467407 C 407.47998 447.993652 347.96991 537.808228 367.859955 413.010864 C 387.75 288.21347 667.987976 290.924896 667.987976 290.924896 Z"/>
                <path id="path4" fill="#ffffff" fill-rule="evenodd" stroke="none" opacity="0.2" d="M 553.532349 583.422546 C 589.651184 561.315369 734.2229 627.995117 604.40155 789.442627 C 474.580139 950.890076 423.81604 929.332764 423.81604 929.332764 C 423.81604 929.332764 353.60672 810.174316 464.511353 728.399597 C 575.416016 646.624878 517.413574 605.529663 553.532349 583.422546 Z"/>
                <path id="path5" fill="#ffffff" fill-rule="evenodd" stroke="none" opacity="0.2" d="M 1021.528564 565.618347 C 1085.006348 566.54541 1123.516968 621.42688 1090.201904 708.051941 C 1056.886963 794.677002 949.328308 941.877747 924.877197 837.768311 C 900.426086 733.658813 916.885254 684.497009 937.594482 657.1828 C 958.303711 629.868591 958.050842 564.691223 1021.528564 565.618347 Z"/>
                <path id="Path-copy" fill="#ffffff" fill-rule="evenodd" stroke="none" opacity="0.2" d="M 861.290771 769.094971 C 924.768555 770.022034 794.604248 910.293823 929.964111 911.528564 C 1022.770752 912.375244 824.698914 1196.223511 800.247742 1092.114014 C 775.796631 988.004639 652.365662 776.061523 673.07489 748.747253 C 693.784119 721.433044 797.812988 768.167847 861.290771 769.094971 Z"/>
                <path id="path6" fill="#ffffff" fill-rule="evenodd" stroke="none" opacity="0.2" d="M 456.880981 552.901001 C 420.530457 616.46106 488.839294 680.893616 390.751068 710.595398 C 292.662872 740.297241 240.687073 827.594482 240.687073 827.594482 L 294.099701 519.83606 C 294.099701 519.83606 493.231506 489.340973 456.880981 552.901001 Z"/>
                <path id="path7" fill="#ffffff" fill-rule="evenodd" stroke="none" opacity="0.2" d="M 828.225769 552.901001 C 828.225769 552.901001 996.757751 696.105896 846.030029 774.181885 C 695.302246 852.257813 620.496948 848.917053 619.662292 802.159912 C 618.827637 755.402771 619.662292 563.074829 619.662292 563.074829 C 619.662292 563.074829 700.606445 518.241455 751.922058 560.531372 C 803.237671 602.82135 828.225769 552.901001 828.225769 552.901001 Z"/>
            </g>
        </g>
    </g>
    <g id="Stars-copy">
        <path id="Star" fill="#ffe657" fill-rule="evenodd" stroke="none" d="M 127.5 93 L 119.348686 114.348694 L 98 122.5 L 119.348686 130.651306 L 127.5 152 L 135.651306 130.651306 L 157 122.5 L 135.651306 114.348694 Z"/>
        <path id="Star-copy" fill="#ffe657" fill-rule="evenodd" stroke="none" d="M 229 360 L 222.368423 377.368408 L 205 384 L 222.368423 390.631592 L 229 408 L 235.631577 390.631592 L 253 384 L 235.631577 377.368408 Z"/>
        <path id="Star-copy-2" fill="#ffe657" fill-rule="evenodd" stroke="none" d="M 717 221 L 712.302612 233.302612 L 700 238 L 712.302612 242.697388 L 717 255 L 721.697388 242.697388 L 734 238 L 721.697388 233.302612 Z"/>
        <path id="Star-copy-3" fill="#ffe657" fill-rule="evenodd" stroke="none" d="M 989.5 685 L 981.348694 706.348694 L 960 714.5 L 981.348694 722.651306 L 989.5 744 L 997.651306 722.651306 L 1019 714.5 L 997.651306 706.348694 Z"/>
        <path id="Star-copy-11" fill="#ffe657" fill-rule="evenodd" stroke="none" d="M 1101 435 L 1097.684204 443.684204 L 1089 447 L 1097.684204 450.315796 L 1101 459 L 1104.315796 450.315796 L 1113 447 L 1104.315796 443.684204 Z"/>
        <path id="Star-copy-12" fill="#ffe657" fill-rule="evenodd" stroke="none" d="M 1174 81 L 1167.368408 98.368408 L 1150 105 L 1167.368408 111.631592 L 1174 129 L 1180.631592 111.631592 L 1198 105 L 1180.631592 98.368408 Z"/>
        <path id="Star-copy-7" fill="#ffe657" fill-rule="evenodd" stroke="none" d="M 1007 246 L 1002.302612 258.302643 L 990 263 L 1002.302612 267.697357 L 1007 280 L 1011.697388 267.697357 L 1024 263 L 1011.697388 258.302643 Z"/>
        <path id="Star-copy-13" fill="#ffe657" fill-rule="evenodd" stroke="none" d="M 840 488 L 835.302612 500.302643 L 823 505 L 835.302612 509.697357 L 840 522 L 844.697388 509.697357 L 857 505 L 844.697388 500.302643 Z"/>
        <path id="Star-copy-8" fill="#ffe657" fill-rule="evenodd" stroke="none" d="M 1048.5 522 L 1040.348633 543.348694 L 1019 551.5 L 1040.348633 559.651306 L 1048.5 581 L 1056.651367 559.651306 L 1078 551.5 L 1056.651367 543.348694 Z"/>
        <path id="Star-copy-9" fill="#ffe657" fill-rule="evenodd" stroke="none" d="M 604 81 L 600.684204 89.684204 L 592 93 L 600.684204 96.315796 L 604 105 L 607.315796 96.315796 L 616 93 L 607.315796 89.684204 Z"/>
        <path id="Star-copy-10" fill="#ffe657" fill-rule="evenodd" stroke="none" d="M 1290 396 L 1286.684204 404.684204 L 1278 408 L 1286.684204 411.315796 L 1290 420 L 1293.315796 411.315796 L 1302 408 L 1293.315796 404.684204 Z"/>
        <path id="Star-copy-4" fill="#ffe657" fill-rule="evenodd" stroke="none" d="M 407 187 L 402.302643 199.302612 L 390 204 L 402.302643 208.697388 L 407 221 L 411.697357 208.697388 L 424 204 L 411.697357 199.302612 Z"/>
        <path id="Star-copy-5" fill="#ffe657" fill-rule="evenodd" stroke="none" d="M 157.5 685 L 149.348679 706.348694 L 128 714.5 L 149.348679 722.651306 L 157.5 744 L 165.651306 722.651306 L 187 714.5 L 165.651306 706.348694 Z"/>
        <path id="Star-copy-6" fill="#ffe657" fill-rule="evenodd" stroke="none" d="M 436 632 L 432.684204 640.684204 L 424 644 L 432.684204 647.315796 L 436 656 L 439.315796 647.315796 L 448 644 L 439.315796 640.684204 Z"/>
    </g>
</svg>
