<?xml version="1.0" encoding="UTF-8"?>
<!-- Generated by Pixelmator Pro 3.7.1 -->
<svg width="1366" height="768" viewBox="0 0 1366 768" xmlns="http://www.w3.org/2000/svg" xmlns:xlink="http://www.w3.org/1999/xlink">
    <linearGradient id="linearGradient1" x1="-370.989949" y1="308.739868" x2="1190.595866" y2="308.739868" gradientUnits="userSpaceOnUse">
        <stop offset="0.001222" stop-color="#9243ff" stop-opacity="1"/>
        <stop offset="0.999537" stop-color="#4b01ff" stop-opacity="1"/>
    </linearGradient>
    <path id="Path" fill="url(#linearGradient1)" fill-rule="evenodd" stroke="none" opacity="0.4" d="M 837.000061 -98 C 837.000061 -98 651.350708 639.960693 -76.999992 642 C -805.350708 644.039307 49.000008 856 49.000008 856 C 49.000008 856 1264.972778 362.146088 1187 -43 C 1109.027222 -448.146118 837.000061 -98 837.000061 -98 Z"/>
    <linearGradient id="linearGradient2" x1="807.668504" y1="716.3355" x2="1435.999986" y2="716.3355" gradientUnits="userSpaceOnUse">
        <stop offset="0.001222" stop-color="#9243ff" stop-opacity="1"/>
        <stop offset="0.999537" stop-color="#4b01ff" stop-opacity="1"/>
    </linearGradient>
    <path id="path1" fill="url(#linearGradient2)" fill-rule="evenodd" stroke="none" opacity="0.4" d="M 1436 384 C 1436 384 976.049927 559.13269 828 912 C 679.950073 1264.86731 1389 823 1389 823 L 1436 384 Z"/>
    <g id="Planet-3-copy">
        <linearGradient id="linearGradient3" x1="-2.573645" y1="141.032654" x2="496.647976" y2="366.86514" gradientUnits="userSpaceOnUse">
            <stop offset="0" stop-color="#ff0167" stop-opacity="1"/>
            <stop offset="0.640487" stop-color="#6800f2" stop-opacity="1"/>
        </linearGradient>
        <path id="Ring-SMall-copy" fill="none" stroke="url(#linearGradient3)" stroke-width="10.913042" stroke-linecap="round" stroke-linejoin="round" opacity="0.4" d="M 521 253.948914 C 521 102.643372 398.342682 -20.013916 247.037155 -20.013916 C 95.731674 -20.013916 -26.925669 102.643372 -26.925669 253.948914 C -26.925669 405.254395 95.731674 527.911743 247.037155 527.911743 C 398.342682 527.911743 521 405.254395 521 253.948914 Z"/>
        <linearGradient id="linearGradient4" x1="15.290656" y1="149.624723" x2="478.992492" y2="359.127782" gradientUnits="userSpaceOnUse">
            <stop offset="0" stop-color="#ff0167" stop-opacity="1"/>
            <stop offset="0.640487" stop-color="#6800f2" stop-opacity="1"/>
        </linearGradient>
        <path id="Ring-Mini-copy" fill="none" stroke="url(#linearGradient4)" stroke-width="2.728261" stroke-linecap="round" stroke-linejoin="round" opacity="0.4" d="M 501.611877 254.376282 C 501.611877 114.011292 387.681641 0.223022 247.141571 0.223022 C 106.601517 0.223022 -7.328713 114.011292 -7.328713 254.376282 C -7.328713 394.741211 106.601517 508.52948 247.141571 508.52948 C 387.681641 508.52948 501.611877 394.741211 501.611877 254.376282 Z"/>
        <linearGradient id="linearGradient5" x1="-2.98722" y1="141.463586" x2="496.218589" y2="367.288919" gradientUnits="userSpaceOnUse">
            <stop offset="0" stop-color="#ff0167" stop-opacity="1"/>
            <stop offset="0.640487" stop-color="#6800f2" stop-opacity="1"/>
        </linearGradient>
        <path id="Ring-copy" fill="none" stroke="url(#linearGradient5)" stroke-width="59.007381" stroke-linecap="round" stroke-linejoin="round" opacity="0.3" d="M 520.569824 254.376221 C 520.569824 103.075562 397.916382 -19.577942 246.615692 -19.577942 C 95.31498 -19.577942 -27.338472 103.075562 -27.338472 254.376221 C -27.338472 405.676971 95.31498 528.330444 246.615692 528.330444 C 397.916382 528.330444 520.569824 405.676971 520.569824 254.376221 Z"/>
        <linearGradient id="linearGradient6" x1="63.853618" y1="323.447779" x2="430.220713" y2="185.420153" gradientUnits="userSpaceOnUse">
            <stop offset="0" stop-color="#2f00f2" stop-opacity="1"/>
            <stop offset="0.615021" stop-color="#ad01ff" stop-opacity="1"/>
        </linearGradient>
        <path id="Planet-copy" fill="url(#linearGradient6)" fill-rule="evenodd" stroke="none" d="M 442.789856 254.43396 C 442.789856 146.322754 355.148376 58.681274 247.03717 58.681274 C 138.925934 58.681274 51.28447 146.322754 51.28447 254.43396 C 51.28447 362.545197 138.925934 450.186676 247.03717 450.186676 C 355.148376 450.186676 442.789856 362.545197 442.789856 254.43396 Z"/>
        <mask id="mask1" maskUnits="userSpaceOnUse" maskContentUnits="userSpaceOnUse" mask-type="alpha">
            <linearGradient id="linearGradient7" x1="63.853618" y1="323.447779" x2="430.220713" y2="185.420153" gradientUnits="userSpaceOnUse">
                <stop offset="0" stop-color="#2f00f2" stop-opacity="1"/>
                <stop offset="0.615021" stop-color="#ad01ff" stop-opacity="1"/>
            </linearGradient>
            <path id="path2" fill="url(#linearGradient7)" fill-rule="evenodd" stroke="none" d="M 442.789856 254.43396 C 442.789856 146.322754 355.148376 58.681274 247.03717 58.681274 C 138.925934 58.681274 51.28447 146.322754 51.28447 254.43396 C 51.28447 362.545197 138.925934 450.186676 247.03717 450.186676 C 355.148376 450.186676 442.789856 362.545197 442.789856 254.43396 Z"/>
        </mask>
        <g id="Group" mask="url(#mask1)">
            <g id="Terrain">
                <path id="path3" fill="#ffffff" fill-rule="evenodd" stroke="none" opacity="0.2" d="M 120.022057 120.716248 C 179.729431 115.547668 231.370056 147.163513 232.094223 179.242798 C 232.818375 211.322083 263.261993 248.744019 212.170273 247.731323 C 161.078552 246.718689 156.731583 257.425629 156.134201 275.12677 C 155.536804 292.827881 104.10154 303.696991 103.833855 231.543152 C 103.56617 159.389282 60.314693 125.884827 120.022057 120.716248 Z"/>
                <path id="path4" fill="#ffffff" fill-rule="evenodd" stroke="none" opacity="0.2" d="M 46.552532 261.429047 C 46.552532 261.429047 86.706711 245.959656 105.079102 317.465118 C 123.4515 388.970612 167.423645 418.106018 106.324348 408.368103 C 45.225052 398.630157 46.552532 261.429047 46.552532 261.429047 Z"/>
                <path id="path5" fill="#ffffff" fill-rule="evenodd" stroke="none" opacity="0.2" d="M 189.755844 317.465118 C 178.932449 299.781799 211.578049 229.001221 290.620789 292.560211 C 369.663513 356.119202 359.109314 380.972687 359.109314 380.972687 C 359.109314 380.972687 300.770782 415.346313 260.734863 361.048737 C 220.698959 306.75116 200.579239 335.148468 189.755844 317.465118 Z"/>
                <path id="path6" fill="#ffffff" fill-rule="evenodd" stroke="none" opacity="0.2" d="M 181.039124 88.339844 C 181.493011 57.261902 208.362335 38.407532 250.772903 54.718201 C 293.183472 71.028809 365.25119 123.688232 314.280457 135.65918 C 263.309723 147.630188 239.240692 139.57196 225.867981 129.432983 C 212.49527 119.294006 180.58522 119.417786 181.039124 88.339844 Z"/>
                <path id="Path-copy" fill="#ffffff" fill-rule="evenodd" stroke="none" opacity="0.2" d="M 280.658813 166.790344 C 281.112701 135.712402 349.788055 199.43927 350.392609 133.168701 C 350.807129 87.731689 489.775818 184.705261 438.805084 196.67627 C 387.834351 208.647217 284.06955 269.077545 270.696838 258.938568 C 257.324127 248.799561 280.204926 197.868286 280.658813 166.790344 Z"/>
                <path id="path7" fill="#ffffff" fill-rule="evenodd" stroke="none" opacity="0.2" d="M 174.812881 364.784485 C 205.931122 382.581268 237.476501 349.138062 252.018158 397.160889 C 266.559814 445.183685 309.299469 470.630402 309.299469 470.630402 L 158.624695 444.480225 C 158.624695 444.480225 143.694656 346.987701 174.812881 364.784485 Z"/>
                <path id="path8" fill="#ffffff" fill-rule="evenodd" stroke="none" opacity="0.2" d="M 174.812881 182.978577 C 174.812881 182.978577 244.924255 100.467346 283.149323 174.261841 C 321.374359 248.056274 319.738739 284.680084 296.847015 285.088715 C 273.955292 285.497375 179.793869 285.088715 179.793869 285.088715 C 179.793869 285.088715 157.843979 245.459412 178.54863 220.335938 C 199.253281 195.212402 174.812881 182.978577 174.812881 182.978577 Z"/>
            </g>
        </g>
    </g>
    <g id="g1">
        <linearGradient id="linearGradient8" x1="1168.449815" y1="374.625174" x2="897.550185" y2="721.360889" gradientUnits="userSpaceOnUse">
            <stop offset="0" stop-color="#ff0167" stop-opacity="1"/>
            <stop offset="0.640487" stop-color="#6800f2" stop-opacity="1"/>
        </linearGradient>
        <path id="path9" fill="none" stroke="url(#linearGradient8)" stroke-width="8.763763" stroke-linecap="round" stroke-linejoin="round" opacity="0.4" d="M 1253.006958 547.993042 C 1253.006958 426.486542 1154.50647 327.986053 1033 327.986053 C 911.49353 327.986053 812.993042 426.486542 812.993042 547.993042 C 812.993042 669.499512 911.49353 768 1033 768 C 1154.50647 768 1253.006958 669.499512 1253.006958 547.993042 Z"/>
        <linearGradient id="linearGradient9" x1="1158.896361" y1="387.504194" x2="907.27133" y2="709.168248" gradientUnits="userSpaceOnUse">
            <stop offset="0" stop-color="#ff0167" stop-opacity="1"/>
            <stop offset="0.640487" stop-color="#6800f2" stop-opacity="1"/>
        </linearGradient>
        <path id="path10" fill="none" stroke="url(#linearGradient9)" stroke-width="2.190941" stroke-linecap="round" stroke-linejoin="round" opacity="0.4" d="M 1237.437256 548.336243 C 1237.437256 435.615601 1145.945068 344.237457 1033.083862 344.237457 C 920.222595 344.237457 828.730469 435.615601 828.730469 548.336243 C 828.730469 661.056885 920.222595 752.434998 1033.083862 752.434998 C 1145.945068 752.434998 1237.437256 661.056885 1237.437256 548.336243 Z"/>
        <linearGradient id="linearGradient10" x1="1132.894391" y1="420.044007" x2="932.428665" y2="676.628435" gradientUnits="userSpaceOnUse">
            <stop offset="0" stop-color="#ff0167" stop-opacity="1"/>
            <stop offset="0.640487" stop-color="#6800f2" stop-opacity="1"/>
        </linearGradient>
        <path id="path11" fill="none" stroke="url(#linearGradient10)" stroke-width="47.386116" stroke-linecap="round" stroke-linejoin="round" opacity="0.3" d="M 1195.466675 548.336182 C 1195.466675 458.421417 1122.576294 385.531067 1032.661499 385.531067 C 942.746704 385.531067 869.856384 458.421417 869.856384 548.336182 C 869.856384 638.251038 942.746704 711.141357 1032.661499 711.141357 C 1122.576294 711.141357 1195.466675 638.251038 1195.466675 548.336182 Z"/>
        <linearGradient id="linearGradient11" x1="1129.579238" y1="424.349142" x2="936.420762" y2="672.415994" gradientUnits="userSpaceOnUse">
            <stop offset="0.332634" stop-color="#a500f2" stop-opacity="1"/>
            <stop offset="0.615021" stop-color="#ff0194" stop-opacity="1"/>
        </linearGradient>
        <path id="path12" fill="url(#linearGradient11)" fill-rule="evenodd" stroke="none" d="M 1190.199951 548.382568 C 1190.199951 461.563416 1119.819214 391.182587 1033 391.182587 C 946.180847 391.182587 875.799988 461.563416 875.799988 548.382568 C 875.799988 635.201721 946.180847 705.582581 1033 705.582581 C 1119.819214 705.582581 1190.199951 635.201721 1190.199951 548.382568 Z"/>
        <mask id="mask2" maskUnits="userSpaceOnUse" maskContentUnits="userSpaceOnUse" mask-type="alpha">
            <linearGradient id="linearGradient12" x1="1129.579238" y1="424.349142" x2="936.420762" y2="672.415994" gradientUnits="userSpaceOnUse">
                <stop offset="0.332634" stop-color="#a500f2" stop-opacity="1"/>
                <stop offset="0.615021" stop-color="#ff0194" stop-opacity="1"/>
            </linearGradient>
            <path id="path13" fill="url(#linearGradient12)" fill-rule="evenodd" stroke="none" d="M 1190.199951 548.382568 C 1190.199951 461.563416 1119.819214 391.182587 1033 391.182587 C 946.180847 391.182587 875.799988 461.563416 875.799988 548.382568 C 875.799988 635.201721 946.180847 705.582581 1033 705.582581 C 1119.819214 705.582581 1190.199951 635.201721 1190.199951 548.382568 Z"/>
        </mask>
        <g id="g2" mask="url(#mask2)">
            <g id="g3">
                <path id="path14" fill="#ffffff" fill-rule="evenodd" stroke="none" opacity="0.2" d="M 897 457 C 897 457 989.669922 540.164917 1079 510 C 1168.330078 479.835114 1200 486 1200 486 L 1211 557 C 1211 557 1048.323975 621.056396 966 554 C 883.676025 486.943604 876 465 876 465 L 897 457 Z"/>
                <path id="path15" fill="#ffffff" fill-rule="evenodd" stroke="none" opacity="0.2" d="M 1154 660 C 1154 660 1062.998291 641.201294 1002 657 C 941.001709 672.798706 920 675 920 675 L 1050 723 L 1154 660 Z"/>
                <path id="path16" fill="#ffffff" fill-rule="evenodd" stroke="none" opacity="0.2" d="M 865 563 C 865 563 908.994629 547.759338 949 585 C 989.005371 622.240662 1035.638062 636.460999 950 629 C 864.361938 621.539001 868 643 868 643 L 865 563 Z"/>
                <path id="path17" fill="#ffffff" fill-rule="evenodd" stroke="none" opacity="0.2" d="M 953 409 C 953 409 1001.261841 472.735077 1077 459 C 1152.738159 445.264923 1179 431 1179 431 L 1084 376 L 979 370 L 953 409 Z"/>
                <path id="path18" fill="#ffffff" fill-rule="evenodd" stroke="none" opacity="0.2" d="M 1005 500 C 1005 500 1103.921143 485.949768 1132 535 C 1160.078857 584.050232 1172.542725 568.082092 1179 571 C 1185.457275 573.917908 1305.453003 611.08606 1143 617 C 980.547058 622.91394 1005 500 1005 500 Z"/>
            </g>
        </g>
    </g>
    <g id="Stars-copy">
        <path id="Star" fill="#ffe657" fill-rule="evenodd" stroke="none" d="M 810.5 331 L 802.348694 352.348694 L 781 360.5 L 802.348694 368.651306 L 810.5 390 L 818.651306 368.651306 L 840 360.5 L 818.651306 352.348694 Z"/>
        <path id="Star-copy" fill="#ffe657" fill-rule="evenodd" stroke="none" d="M 87 370 L 80.368423 387.368408 L 63 394 L 80.368423 400.631592 L 87 418 L 93.631577 400.631592 L 111 394 L 93.631577 387.368408 Z"/>
        <path id="Star-copy-2" fill="#ffe657" fill-rule="evenodd" stroke="none" d="M 523 246 L 518.302612 258.302643 L 506 263 L 518.302612 267.697357 L 523 280 L 527.697388 267.697357 L 540 263 L 527.697388 258.302643 Z"/>
        <path id="Star-copy-3" fill="#ffe657" fill-rule="evenodd" stroke="none" d="M 589.5 615 L 581.348694 636.348694 L 560 644.5 L 581.348694 652.651306 L 589.5 674 L 597.651306 652.651306 L 619 644.5 L 597.651306 636.348694 Z"/>
        <path id="Star-copy-11" fill="#ffe657" fill-rule="evenodd" stroke="none" d="M 1101 435 L 1097.684204 443.684204 L 1089 447 L 1097.684204 450.315796 L 1101 459 L 1104.315796 450.315796 L 1113 447 L 1104.315796 443.684204 Z"/>
        <path id="Star-copy-12" fill="#ffe657" fill-rule="evenodd" stroke="none" d="M 1101 96 L 1094.368408 113.368408 L 1077 120 L 1094.368408 126.631592 L 1101 144 L 1107.631592 126.631592 L 1125 120 L 1107.631592 113.368408 Z"/>
        <path id="Star-copy-7" fill="#ffe657" fill-rule="evenodd" stroke="none" d="M 1062 237 L 1057.302612 249.302612 L 1045 254 L 1057.302612 258.697357 L 1062 271 L 1066.697388 258.697357 L 1079 254 L 1066.697388 249.302612 Z"/>
        <path id="Star-copy-13" fill="#ffe657" fill-rule="evenodd" stroke="none" d="M 840 488 L 835.302612 500.302643 L 823 505 L 835.302612 509.697357 L 840 522 L 844.697388 509.697357 L 857 505 L 844.697388 500.302643 Z"/>
        <path id="Star-copy-8" fill="#ffe657" fill-rule="evenodd" stroke="none" d="M 1224.5 463 L 1216.348633 484.348694 L 1195 492.5 L 1216.348633 500.651306 L 1224.5 522 L 1232.651367 500.651306 L 1254 492.5 L 1232.651367 484.348694 Z"/>
        <path id="Star-copy-9" fill="#ffe657" fill-rule="evenodd" stroke="none" d="M 704 120 L 700.684204 128.684204 L 692 132 L 700.684204 135.315796 L 704 144 L 707.315796 135.315796 L 716 132 L 707.315796 128.684204 Z"/>
        <path id="Star-copy-10" fill="#ffe657" fill-rule="evenodd" stroke="none" d="M 1290 280 L 1286.684204 288.684204 L 1278 292 L 1286.684204 295.315796 L 1290 304 L 1293.315796 295.315796 L 1302 292 L 1293.315796 288.684204 Z"/>
        <path id="Star-copy-4" fill="#ffe657" fill-rule="evenodd" stroke="none" d="M 407 187 L 402.302643 199.302612 L 390 204 L 402.302643 208.697388 L 407 221 L 411.697357 208.697388 L 424 204 L 411.697357 199.302612 Z"/>
        <path id="Star-copy-5" fill="#ffe657" fill-rule="evenodd" stroke="none" d="M 97.5 626 L 89.348686 647.348694 L 68 655.5 L 89.348686 663.651306 L 97.5 685 L 105.651314 663.651306 L 127 655.5 L 105.651314 647.348694 Z"/>
        <path id="Star-copy-6" fill="#ffe657" fill-rule="evenodd" stroke="none" d="M 474 534 L 470.684204 542.684204 L 462 546 L 470.684204 549.315796 L 474 558 L 477.315796 549.315796 L 486 546 L 477.315796 542.684204 Z"/>
    </g>
</svg>
