<?xml version="1.0" encoding="UTF-8"?>
<!-- Generated by Pixelmator Pro 3.7.1 -->
<svg width="1920" height="1080" viewBox="0 0 1920 1080" xmlns="http://www.w3.org/2000/svg">
    <path id="Oval" fill="none" stroke="#f6c025" stroke-width="100" stroke-linecap="round" d="M 595 375 C 595 241.899414 487.100616 134 354 134 C 220.899384 134 113 241.899414 113 375 C 113 508.100647 220.899384 616 354 616 C 487.100616 616 595 508.100647 595 375 Z"/>
    <path id="path1" fill="none" stroke="#7125f6" stroke-width="100" stroke-linecap="round" d="M 1605 983 C 1605 780.311523 1440.688477 616 1238 616 C 1035.311523 616 871 780.311523 871 983 C 871 1185.688477 1035.311523 1350 1238 1350 C 1440.688477 1350 1605 1185.688477 1605 983 Z"/>
    <path id="path2" fill="none" stroke="#f625ec" stroke-width="100" stroke-linecap="round" d="M 1791 39 C 1791 -140.492554 1645.492554 -286 1466 -286 C 1286.507446 -286 1141 -140.492554 1141 39 C 1141 218.492554 1286.507446 364 1466 364 C 1645.492554 364 1791 218.492554 1791 39 Z"/>
</svg>
