<?xml version="1.0" encoding="UTF-8"?>
<!-- Generated by Pixelmator Pro 3.7.1 -->
<svg width="1366" height="768" viewBox="0 0 1366 768" xmlns="http://www.w3.org/2000/svg" xmlns:xlink="http://www.w3.org/1999/xlink">
    <linearGradient id="linearGradient1" x1="-191" y1="612.062759" x2="1256.516724" y2="612.062759" gradientUnits="userSpaceOnUse">
        <stop offset="0.001222" stop-color="#9243ff" stop-opacity="1"/>
        <stop offset="0.999537" stop-color="#4b01ff" stop-opacity="1"/>
    </linearGradient>
    <path id="Wave-copy-4" fill="url(#linearGradient1)" fill-rule="evenodd" stroke="none" opacity="0.4" d="M 1256.516724 788.125488 C 1256.516724 788.125488 600.817261 721.108887 138.516724 486.873718 C -323.783813 252.638489 -164.483276 525.873657 -164.483276 525.873657 L -73.483276 678.873657 C -73.483276 678.873657 -46.907104 689.275879 188.516724 746.873657 C 504.146851 824.094482 943.516724 832.125488 943.516724 832.125488 L 1256.516724 788.125488 Z"/>
    <linearGradient id="linearGradient2" x1="-24" y1="439.422455" x2="1603.185425" y2="439.422455" gradientUnits="userSpaceOnUse">
        <stop offset="0.001222" stop-color="#9243ff" stop-opacity="1"/>
        <stop offset="0.999537" stop-color="#4b01ff" stop-opacity="1"/>
    </linearGradient>
    <path id="Path-copy" fill="url(#linearGradient2)" fill-rule="evenodd" stroke="none" opacity="0.4" d="M -24 74 C -24 74 761.959412 59.304688 950 316 C 1138.040649 572.695313 1553.158447 659.571472 1599 662 C 1644.841553 664.428528 1299 805 1299 805 C 1299 805 793.997437 378.460022 466 316 C 138.002563 253.539978 18 296 18 296 L -24 74 Z"/>
    <g id="Planet-2-copy">
        <linearGradient id="linearGradient3" x1="284.003082" y1="831.43256" x2="335.103332" y2="-318.446498" gradientUnits="userSpaceOnUse">
            <stop offset="0" stop-color="#ff0167" stop-opacity="1"/>
            <stop offset="0.640487" stop-color="#6800f2" stop-opacity="1"/>
        </linearGradient>
        <path id="Ring-SMall-copy" fill="none" stroke="url(#linearGradient3)" stroke-width="20.093493" stroke-linecap="round" stroke-linejoin="round" opacity="0.4" d="M 885.060181 256.493042 C 885.060181 -61.350708 627.396973 -319.013916 309.553192 -319.013916 C -8.290523 -319.013916 -265.953766 -61.350708 -265.953766 256.493042 C -265.953766 574.336792 -8.290523 832 309.553192 832 C 627.396973 832 885.060181 574.336792 885.060181 256.493042 Z"/>
        <linearGradient id="linearGradient4" x1="288.944213" y1="724.774692" x2="330.546683" y2="-210.214904" gradientUnits="userSpaceOnUse">
            <stop offset="0" stop-color="#ff0167" stop-opacity="1"/>
            <stop offset="0.640487" stop-color="#6800f2" stop-opacity="1"/>
        </linearGradient>
        <path id="Ring-Mini-copy" fill="none" stroke="url(#linearGradient4)" stroke-width="5.023373" stroke-linecap="round" stroke-linejoin="round" opacity="0.4" d="M 778.285461 257.279877 C 778.285461 -1.165161 568.512939 -210.676331 309.745453 -210.676331 C 50.977955 -210.676331 -158.794556 -1.165161 -158.794556 257.279877 C -158.794556 515.724976 50.977955 725.236084 309.745453 725.236084 C 568.512939 725.236084 778.285461 515.724976 778.285461 257.279877 Z"/>
        <linearGradient id="linearGradient5" x1="291.303418" y1="650.481297" x2="326.250903" y2="-135.921509" gradientUnits="userSpaceOnUse">
            <stop offset="0" stop-color="#ff0167" stop-opacity="1"/>
            <stop offset="0.640487" stop-color="#6800f2" stop-opacity="1"/>
        </linearGradient>
        <path id="Ring-copy" fill="none" stroke="url(#linearGradient5)" stroke-width="108.646545" stroke-linecap="round" stroke-linejoin="round" opacity="0.3" d="M 702.366638 257.279877 C 702.366638 39.906433 526.150635 -136.30957 308.777161 -136.30957 C 91.403687 -136.30957 -84.812317 39.906433 -84.812317 257.279877 C -84.812317 474.653351 91.403687 650.869385 308.777161 650.869385 C 526.150635 650.869385 702.366638 474.653351 702.366638 257.279877 Z"/>
        <linearGradient id="linearGradient6" x1="618.088106" y1="443.702711" x2="1.018309" y2="71.069604" gradientUnits="userSpaceOnUse">
            <stop offset="0.184248" stop-color="#00f21c" stop-opacity="1"/>
            <stop offset="0.807374" stop-color="#c3ff01" stop-opacity="1"/>
        </linearGradient>
        <path id="Planet-copy" fill="url(#linearGradient6)" fill-rule="evenodd" stroke="none" d="M 669.980225 257.386139 C 669.980225 58.32782 508.611542 -103.040894 309.553223 -103.040894 C 110.494865 -103.040894 -50.873821 58.32782 -50.873821 257.386139 C -50.873821 456.444489 110.494865 617.813171 309.553223 617.813171 C 508.611542 617.813171 669.980225 456.444489 669.980225 257.386139 Z"/>
        <mask id="mask1" maskUnits="userSpaceOnUse" maskContentUnits="userSpaceOnUse" mask-type="alpha">
            <linearGradient id="linearGradient7" x1="618.088106" y1="443.702711" x2="1.018309" y2="71.069604" gradientUnits="userSpaceOnUse">
                <stop offset="0.184248" stop-color="#00f21c" stop-opacity="1"/>
                <stop offset="0.807374" stop-color="#c3ff01" stop-opacity="1"/>
            </linearGradient>
            <path id="path1" fill="url(#linearGradient7)" fill-rule="evenodd" stroke="none" d="M 669.980225 257.386139 C 669.980225 58.32782 508.611542 -103.040894 309.553223 -103.040894 C 110.494865 -103.040894 -50.873821 58.32782 -50.873821 257.386139 C -50.873821 456.444489 110.494865 617.813171 309.553223 617.813171 C 508.611542 617.813171 669.980225 456.444489 669.980225 257.386139 Z"/>
        </mask>
        <g id="Group" mask="url(#mask1)">
            <g id="Terrain">
                <path id="Path" fill="#000000" fill-rule="evenodd" stroke="none" opacity="0.2" d="M 34.418072 -32.382874 C 34.418072 -32.382874 251.341263 -85.917542 357.701843 34.108093 C 464.062439 154.133789 765.81897 66.207214 765.81897 66.207214 L 777.282959 304.657654 C 777.282959 304.657654 409.71106 421.563507 265.990143 235.873901 C 122.269234 50.184265 -91.685532 123.527039 -91.685532 123.527039 L 34.418072 -32.382874 Z"/>
                <path id="path2" fill="#000000" fill-rule="evenodd" stroke="none" opacity="0.2" d="M -105.442291 256.509003 C -105.442291 256.509003 -161.624176 363.796295 181.156815 394.076569 C 523.937744 424.356873 605.323486 575.207214 605.323486 575.207214 L 506.733398 621.063049 C 506.733398 621.063049 550.90802 526.544189 343.945099 527.058594 C 136.982208 527.572876 56.770424 485.821442 29.832487 391.783783 C 2.89455 297.746124 -394.334167 650.869385 -394.334167 650.869385 L -105.442291 256.509003 Z"/>
                <path id="path3" fill="#000000" fill-rule="evenodd" stroke="none" opacity="0.2" d="M 167.400055 183.139648 C 265.213043 204.649292 339.269257 73.475586 460.877533 164.797302 C 582.485779 256.118988 561.760437 332.171173 561.760437 332.171173 C 561.760437 332.171173 547.7771 567.754578 343.945099 371.148651 C 140.113098 174.542664 107.787445 288.608124 107.787445 288.608124 C 107.787445 288.608124 69.587059 161.630005 167.400055 183.139648 Z"/>
            </g>
        </g>
    </g>
    <g id="Stars-copy">
        <path id="Star" fill="#ffe657" fill-rule="evenodd" stroke="none" d="M 1112.5 644 L 1104.348633 665.348694 L 1083 673.5 L 1104.348633 681.651306 L 1112.5 703 L 1120.651367 681.651306 L 1142 673.5 L 1120.651367 665.348694 Z"/>
        <path id="Star-copy" fill="#ffe657" fill-rule="evenodd" stroke="none" d="M 642 411 L 635.368408 428.368408 L 618 435 L 635.368408 441.631592 L 642 459 L 648.631592 441.631592 L 666 435 L 648.631592 428.368408 Z"/>
        <path id="Star-copy-2" fill="#ffe657" fill-rule="evenodd" stroke="none" d="M 523 246 L 518.302612 258.302643 L 506 263 L 518.302612 267.697357 L 523 280 L 527.697388 267.697357 L 540 263 L 527.697388 258.302643 Z"/>
        <path id="Star-copy-3" fill="#ffe657" fill-rule="evenodd" stroke="none" d="M 721.5 626 L 713.348694 647.348694 L 692 655.5 L 713.348694 663.651306 L 721.5 685 L 729.651306 663.651306 L 751 655.5 L 729.651306 647.348694 Z"/>
        <path id="Star-copy-11" fill="#ffe657" fill-rule="evenodd" stroke="none" d="M 1101 435 L 1097.684204 443.684204 L 1089 447 L 1097.684204 450.315796 L 1101 459 L 1104.315796 450.315796 L 1113 447 L 1104.315796 443.684204 Z"/>
        <path id="Star-copy-12" fill="#ffe657" fill-rule="evenodd" stroke="none" d="M 1254 84 L 1247.368408 101.368408 L 1230 108 L 1247.368408 114.631592 L 1254 132 L 1260.631592 114.631592 L 1278 108 L 1260.631592 101.368408 Z"/>
        <path id="Star-copy-7" fill="#ffe657" fill-rule="evenodd" stroke="none" d="M 923 93 L 918.302612 105.302612 L 906 110 L 918.302612 114.697388 L 923 127 L 927.697388 114.697388 L 940 110 L 927.697388 105.302612 Z"/>
        <path id="Star-copy-9" fill="#ffe657" fill-rule="evenodd" stroke="none" d="M 1004 256 L 1000.684204 264.684204 L 992 268 L 1000.684204 271.315796 L 1004 280 L 1007.315796 271.315796 L 1016 268 L 1007.315796 264.684204 Z"/>
        <path id="Star-copy-10" fill="#ffe657" fill-rule="evenodd" stroke="none" d="M 1290 280 L 1286.684204 288.684204 L 1278 292 L 1286.684204 295.315796 L 1290 304 L 1293.315796 295.315796 L 1302 292 L 1293.315796 288.684204 Z"/>
        <path id="Star-copy-4" fill="#ffe657" fill-rule="evenodd" stroke="none" d="M 618 91 L 613.302612 103.302612 L 601 108 L 613.302612 112.697388 L 618 125 L 622.697388 112.697388 L 635 108 L 622.697388 103.302612 Z"/>
        <path id="Star-copy-5" fill="#ffe657" fill-rule="evenodd" stroke="none" d="M 97.5 626 L 89.348686 647.348694 L 68 655.5 L 89.348686 663.651306 L 97.5 685 L 105.651314 663.651306 L 127 655.5 L 105.651314 647.348694 Z"/>
        <path id="Star-copy-6" fill="#ffe657" fill-rule="evenodd" stroke="none" d="M 436 632 L 432.684204 640.684204 L 424 644 L 432.684204 647.315796 L 436 656 L 439.315796 647.315796 L 448 644 L 439.315796 640.684204 Z"/>
    </g>
</svg>
