<?xml version="1.0" encoding="UTF-8"?>
<!-- Generated by Pixelmator Pro 3.7.1 -->
<svg width="1366" height="768" viewBox="0 0 1366 768" xmlns="http://www.w3.org/2000/svg" xmlns:xlink="http://www.w3.org/1999/xlink">
    <linearGradient id="linearGradient1" x1="-119.688354" y1="194.922455" x2="1513.185425" y2="194.922455" gradientUnits="userSpaceOnUse">
        <stop offset="0.001222" stop-color="#9243ff" stop-opacity="1"/>
        <stop offset="0.999537" stop-color="#4b01ff" stop-opacity="1"/>
    </linearGradient>
    <path id="Path-copy-2" fill="url(#linearGradient1)" fill-rule="evenodd" stroke="none" opacity="0.4" d="M 1513.185425 -226 C 1513.185425 -226 727.226013 -240.695313 539.185425 16 C 351.144775 272.695313 -63.973022 359.571472 -109.814575 362 C -155.656128 364.428558 -27 616 -27 616 C -27 616 695.187988 78.460022 1023.185425 16 C 1351.182861 -46.460022 1471.185425 -4 1471.185425 -4 L 1513.185425 -226 Z"/>
    <linearGradient id="linearGradient2" x1="213.893921" y1="676.842596" x2="1534" y2="676.842596" gradientUnits="userSpaceOnUse">
        <stop offset="0.001222" stop-color="#9243ff" stop-opacity="1"/>
        <stop offset="0.999537" stop-color="#4b01ff" stop-opacity="1"/>
    </linearGradient>
    <path id="Path-copy" fill="url(#linearGradient2)" fill-rule="evenodd" stroke="none" opacity="0.4" d="M 1486 453 C 1486 453 521.8078 613.852173 246.433838 818 C -28.939941 1022.147827 1534 784 1534 784 L 1486 453 Z"/>
    <g id="Moon-copy">
        <linearGradient id="linearGradient3" x1="-166.616011" y1="976.661901" x2="309.871931" y2="500.173959" gradientUnits="userSpaceOnUse" gradientTransform="matrix(-0.958504 -0.28508 0.28508 -0.958504 -70.224417 1466.613993)">
            <stop offset="0" stop-color="#d9d9d9" stop-opacity="1"/>
            <stop offset="1" stop-color="#a9a9a9" stop-opacity="1"/>
        </linearGradient>
        <filter id="filter1" x="0" y="0" width="1366" height="768" filterUnits="userSpaceOnUse" primitiveUnits="userSpaceOnUse" color-interpolation-filters="sRGB">
            <feGaussianBlur stdDeviation="33.505679"/>
        </filter>
        <path id="Moon-Shadow" fill="url(#linearGradient3)" fill-rule="evenodd" stroke="none" opacity="0.65" filter="url(#filter1)" d="M -251.318665 642.366577 C -304.366364 820.725098 -202.781891 1008.316895 -24.423374 1061.364502 C 153.935135 1114.412231 341.526886 1012.827759 394.574585 834.469238 C 447.622284 656.110779 346.037781 468.518982 167.679291 415.471313 C -10.679228 362.423615 -198.270981 464.008087 -251.318665 642.366577 Z"/>
        <linearGradient id="linearGradient4" x1="-166.616011" y1="976.661901" x2="309.871931" y2="500.173959" gradientUnits="userSpaceOnUse" gradientTransform="matrix(-0.958504 -0.28508 0.28508 -0.958504 -70.224417 1466.613993)">
            <stop offset="0" stop-color="#d9d9d9" stop-opacity="1"/>
            <stop offset="1" stop-color="#a9a9a9" stop-opacity="1"/>
        </linearGradient>
        <path id="Moon" fill="url(#linearGradient4)" fill-rule="evenodd" stroke="none" d="M -251.318665 642.366577 C -304.366364 820.725098 -202.781891 1008.316895 -24.423374 1061.364502 C 153.935135 1114.412231 341.526886 1012.827759 394.574585 834.469238 C 447.622284 656.110779 346.037781 468.518982 167.679291 415.471313 C -10.679228 362.423615 -198.270981 464.008087 -251.318665 642.366577 Z"/>
        <mask id="mask1" maskUnits="userSpaceOnUse" maskContentUnits="userSpaceOnUse" mask-type="alpha">
            <linearGradient id="linearGradient5" x1="-166.616011" y1="976.661901" x2="309.871931" y2="500.173959" gradientUnits="userSpaceOnUse" gradientTransform="matrix(-0.958504 -0.28508 0.28508 -0.958504 -70.224417 1466.613993)">
                <stop offset="0" stop-color="#d9d9d9" stop-opacity="1"/>
                <stop offset="1" stop-color="#a9a9a9" stop-opacity="1"/>
            </linearGradient>
            <path id="path1" fill="url(#linearGradient5)" fill-rule="evenodd" stroke="none" d="M -251.318665 642.366577 C -304.366364 820.725098 -202.781891 1008.316895 -24.423374 1061.364502 C 153.935135 1114.412231 341.526886 1012.827759 394.574585 834.469238 C 447.622284 656.110779 346.037781 468.518982 167.679291 415.471313 C -10.679228 362.423615 -198.270981 464.008087 -251.318665 642.366577 Z"/>
        </mask>
        <g id="Group" mask="url(#mask1)">
            <g id="Terrain">
                <path id="Path" fill="#000000" fill-rule="evenodd" stroke="none" opacity="0.2" d="M 324.812775 829.061829 C 296.382019 821.267151 260.283447 834.030762 250.566132 791.638 C 240.848816 749.2453 221.272491 724.789246 203.121933 720.164185 C 184.97139 715.539185 201.253326 527.937988 116.821251 505.732635 C 32.389202 483.527313 -12.522002 418.756714 -43.714241 439.976624 C -74.906479 461.196533 -141.215286 462.563141 -130.278442 502.275909 C -119.341583 541.988647 -286.110046 646.233276 -160.985672 645.888245 C -35.861317 645.543213 7.922516 782.169495 7.922516 782.169495 L 365.170258 881.752625 C 365.170258 881.752625 353.24353 836.856506 324.812775 829.061829 Z"/>
                <path id="path2" fill="#000000" fill-rule="evenodd" stroke="none" opacity="0.2" d="M 119.426514 752.634277 C 82.434334 753.809021 126.423073 713.403809 30.525648 681.50354 C -65.371773 649.603271 -176.453979 588.183411 -122.304672 585.355713 C -68.155357 582.527954 -31.931097 411.229156 14.710159 519.385254 C 61.35141 627.541382 76.572754 594.587524 119.770714 639.34491 C 203.426086 726.020203 156.418686 751.459473 119.426514 752.634277 Z"/>
                <path id="path3" fill="#000000" fill-rule="evenodd" stroke="none" opacity="0.2" d="M 371.011047 788.107361 C 364.521942 801.913147 303.109863 755.947998 320.732513 735.13385 C 338.355164 714.319702 377.307098 646.457703 363.386017 697.127136 C 349.464935 747.79657 363.441986 757.951355 381.10141 756.423889 C 398.760834 754.896484 377.500153 774.301575 371.011047 788.107361 Z"/>
                <path id="path4" fill="#000000" fill-rule="evenodd" stroke="none" opacity="0.2" d="M 384.921539 662.844666 C 378.432404 676.650452 333.996552 636.401367 351.619202 615.58728 C 369.241852 594.773132 312.46109 603.483154 288.405792 556.765625 C 267.474274 516.114746 399.050568 598.627686 397.679779 619.948486 C 396.54248 637.637329 391.410614 649.038818 384.921539 662.844666 Z"/>
                <path id="path5" fill="#000000" fill-rule="evenodd" stroke="none" opacity="0.2" d="M 268.609924 730.970642 C 260.267731 714.647156 215.981461 701.967712 265.931885 686.151428 C 315.882294 670.335205 237.593887 664.110291 238.408829 648.617065 C 239.415192 629.484863 245.959961 590.646973 277.071228 606.088257 C 361.039154 647.763489 304.844238 668.912292 304.770874 692.366943 C 304.737457 703.056458 267.417999 692.919434 284.595825 706.376709 C 301.773621 719.834045 303.423828 790.06366 289.439545 786.524536 C 275.455261 782.985474 276.952118 747.294128 268.609924 730.970642 Z"/>
                <path id="path6" fill="#000000" fill-rule="evenodd" stroke="none" opacity="0.2" d="M 244.680176 555.766846 C 231.53569 529.14032 201.88356 455.774384 134.167603 460.866058 C 66.451653 465.957733 14.687022 432.000031 14.687022 432.000031 C 14.687022 432.000031 -51.335354 373.673676 14.02964 387.114838 C 79.394653 400.556 213.294022 407.68512 256.265839 483.173492 C 268.388275 504.468872 257.824646 582.393372 244.680176 555.766846 Z"/>
                <path id="path7" fill="#000000" fill-rule="evenodd" stroke="none" opacity="0.2" d="M 192.602173 596.30658 C 206.657761 604.379822 147.377151 635.881348 120.109276 575.412598 C 92.8414 514.943848 18.599232 464.287994 87.805702 484.429596 C 157.012131 504.571167 182.153397 498.582458 177.403992 539.759521 C 172.654602 580.936523 178.54657 588.233276 192.602173 596.30658 Z"/>
            </g>
        </g>
    </g>
    <g id="Planet-copy">
        <linearGradient id="linearGradient6" x1="1079.777441" y1="125.8884" x2="720.222559" y2="586.097663" gradientUnits="userSpaceOnUse" gradientTransform="matrix(0.982126 -0.188223 0.188223 0.982126 -50.919809 175.763857)">
            <stop offset="0" stop-color="#ff0167" stop-opacity="1"/>
            <stop offset="0.640487" stop-color="#6800f2" stop-opacity="1"/>
        </linearGradient>
        <path id="Ring-SMall-copy" fill="none" stroke="url(#linearGradient6)" stroke-width="11.631813" stroke-linecap="round" stroke-linejoin="round" opacity="0.4" d="M 1186.78772 301.030548 C 1156.432739 142.64209 1003.425964 38.850403 845.037476 69.205322 C 686.649048 99.560303 582.857361 252.567078 613.21228 410.955536 C 643.567261 569.343994 796.574036 673.135681 954.962463 642.780762 C 1113.350952 612.425781 1217.1427 459.419006 1186.78772 301.030548 Z"/>
        <linearGradient id="linearGradient7" x1="1067.181248" y1="142.95315" x2="733.208816" y2="569.885743" gradientUnits="userSpaceOnUse" gradientTransform="matrix(0.982126 -0.188223 0.188223 0.982126 -50.996584 175.808188)">
            <stop offset="0" stop-color="#ff0167" stop-opacity="1"/>
            <stop offset="0.640487" stop-color="#6800f2" stop-opacity="1"/>
        </linearGradient>
        <path id="Ring-Mini-copy" fill="none" stroke="url(#linearGradient7)" stroke-width="2.907953" stroke-linecap="round" stroke-linejoin="round" opacity="0.4" d="M 1166.577637 305.367554 C 1138.417603 158.431763 996.325867 62.173523 849.206726 90.368713 C 702.087646 118.563904 605.652283 260.535583 633.812378 407.471344 C 661.972412 554.407104 804.064209 650.665405 951.183289 622.470215 C 1098.302368 594.275024 1194.737793 452.303314 1166.577637 305.367554 Z"/>
        <linearGradient id="linearGradient8" x1="1032.679831" y1="186.247523" x2="766.609218" y2="526.802377" gradientUnits="userSpaceOnUse" gradientTransform="matrix(0.982126 -0.188223 0.188223 0.982126 -51.026282 175.706456)">
            <stop offset="0" stop-color="#ff0167" stop-opacity="1"/>
            <stop offset="0.640487" stop-color="#6800f2" stop-opacity="1"/>
        </linearGradient>
        <path id="Ring-copy" fill="none" stroke="url(#linearGradient8)" stroke-width="62.89381" stroke-linecap="round" stroke-linejoin="round" opacity="0.3" d="M 1111.867432 315.852692 C 1089.404785 198.645203 976.179749 121.839355 858.97229 144.302063 C 741.764771 166.764709 664.958923 279.989716 687.421631 397.197205 C 709.884277 514.404663 823.109314 591.21051 940.316772 568.747864 C 1057.524292 546.285217 1134.330078 433.060181 1111.867432 315.852692 Z"/>
        <linearGradient id="linearGradient9" x1="1028.283302" y1="191.87591" x2="771.911327" y2="521.125705" gradientUnits="userSpaceOnUse" gradientTransform="matrix(0.982126 -0.188223 0.188223 0.982126 -51.013645 175.79125)">
            <stop offset="0.332634" stop-color="#a500f2" stop-opacity="1"/>
            <stop offset="0.615021" stop-color="#ff0194" stop-opacity="1"/>
        </linearGradient>
        <path id="path8" fill="url(#linearGradient9)" fill-rule="evenodd" stroke="none" d="M 1105.013672 317.228851 C 1083.324341 204.056641 973.997498 129.895142 860.825378 151.584412 C 747.653137 173.273743 673.491638 282.600586 695.180969 395.772766 C 716.870239 508.944946 826.197083 583.106445 939.369263 561.417175 C 1052.541504 539.727905 1126.703003 430.401031 1105.013672 317.228851 Z"/>
        <mask id="mask2" maskUnits="userSpaceOnUse" maskContentUnits="userSpaceOnUse" mask-type="alpha">
            <linearGradient id="linearGradient10" x1="1028.283302" y1="191.87591" x2="771.911327" y2="521.125705" gradientUnits="userSpaceOnUse" gradientTransform="matrix(0.982126 -0.188223 0.188223 0.982126 -51.013645 175.79125)">
                <stop offset="0.332634" stop-color="#a500f2" stop-opacity="1"/>
                <stop offset="0.615021" stop-color="#ff0194" stop-opacity="1"/>
            </linearGradient>
            <path id="path9" fill="url(#linearGradient10)" fill-rule="evenodd" stroke="none" d="M 1105.013672 317.228851 C 1083.324341 204.056641 973.997498 129.895142 860.825378 151.584412 C 747.653137 173.273743 673.491638 282.600586 695.180969 395.772766 C 716.870239 508.944946 826.197083 583.106445 939.369263 561.417175 C 1052.541504 539.727905 1126.703003 430.401031 1105.013672 317.228851 Z"/>
        </mask>
        <g id="g1" mask="url(#mask2)">
            <g id="g2">
                <path id="path10" fill="#ffffff" fill-rule="evenodd" stroke="none" opacity="0.2" d="M 699.986633 271.355774 C 699.986633 271.355774 841.561951 356.613525 950.471313 294.97583 C 1059.380737 233.338135 1102.203857 233.462463 1102.203857 233.462463 L 1134.280151 323.265717 C 1134.280151 323.265717 938.228271 447.405701 814.163513 380.561401 C 690.098816 313.717072 674.610901 287.030365 674.610901 287.030365 L 699.986633 271.355774 Z"/>
                <path id="path11" fill="#ffffff" fill-rule="evenodd" stroke="none" opacity="0.2" d="M 1085.709961 471.770081 C 1085.709961 471.770081 962.389343 469.999451 886.822571 505.832367 C 811.255798 541.665283 784.429138 549.781433 784.429138 549.781433 L 965.880676 579.874512 L 1085.709961 471.770081 Z"/>
                <path id="path12" fill="#ffffff" fill-rule="evenodd" stroke="none" opacity="0.2" d="M 684.754456 417.525238 C 684.754456 417.525238 738.295715 386.667633 799.747864 425.218079 C 861.199951 463.768524 925.540039 470.655487 812.043518 482.323975 C 698.546997 493.992523 708.650818 521.058899 708.650818 521.058899 L 684.754456 417.525238 Z"/>
                <path id="path13" fill="#ffffff" fill-rule="evenodd" stroke="none" opacity="0.2" d="M 760.993408 194.795898 C 760.993408 194.795898 839.827026 265.820221 935.123352 228.994995 C 1030.419678 192.169739 1061.089355 167.014038 1061.089355 167.014038 L 923.512939 119.052429 L 785.142395 137.462524 L 760.993408 194.795898 Z"/>
                <path id="path14" fill="#ffffff" fill-rule="evenodd" stroke="none" opacity="0.2" d="M 851.51123 300.427246 C 851.51123 300.427246 976.948792 257.399567 1025.804443 314.323761 C 1074.660156 371.247955 1086.918091 347.319122 1096.064331 349.509552 C 1105.210571 351.699982 1270.915161 370.172668 1060.628784 418.465942 C 850.342346 466.759216 851.51123 300.427246 851.51123 300.427246 Z"/>
            </g>
        </g>
    </g>
    <g id="Stars-copy">
        <path id="Star" fill="#ffe657" fill-rule="evenodd" stroke="none" d="M 167.5 108 L 159.348679 129.348694 L 138 137.5 L 159.348679 145.651306 L 167.5 167 L 175.651306 145.651306 L 197 137.5 L 175.651306 129.348694 Z"/>
        <path id="Star-copy" fill="#ffe657" fill-rule="evenodd" stroke="none" d="M 68 336 L 61.368423 353.368408 L 44 360 L 61.368423 366.631592 L 68 384 L 74.631577 366.631592 L 92 360 L 74.631577 353.368408 Z"/>
        <path id="Star-copy-13" fill="#ffe657" fill-rule="evenodd" stroke="none" d="M 290 240 L 283.368408 257.368408 L 266 264 L 283.368408 270.631592 L 290 288 L 296.631592 270.631592 L 314 264 L 296.631592 257.368408 Z"/>
        <path id="Star-copy-2" fill="#ffe657" fill-rule="evenodd" stroke="none" d="M 598 206 L 593.302612 218.302612 L 581 223 L 593.302612 227.697388 L 598 240 L 602.697388 227.697388 L 615 223 L 602.697388 218.302612 Z"/>
        <path id="Star-copy-3" fill="#ffe657" fill-rule="evenodd" stroke="none" d="M 1216.5 498 L 1208.348633 519.348694 L 1187 527.5 L 1208.348633 535.651306 L 1216.5 557 L 1224.651367 535.651306 L 1246 527.5 L 1224.651367 519.348694 Z"/>
        <path id="Star-copy-11" fill="#ffe657" fill-rule="evenodd" stroke="none" d="M 505 469 L 501.684204 477.684204 L 493 481 L 501.684204 484.315796 L 505 493 L 508.315796 484.315796 L 517 481 L 508.315796 477.684204 Z"/>
        <path id="Star-copy-12" fill="#ffe657" fill-rule="evenodd" stroke="none" d="M 1270 69 L 1263.368408 86.368408 L 1246 93 L 1263.368408 99.631592 L 1270 117 L 1276.631592 99.631592 L 1294 93 L 1276.631592 86.368408 Z"/>
        <path id="Star-copy-7" fill="#ffe657" fill-rule="evenodd" stroke="none" d="M 939 78 L 934.302612 90.302612 L 922 95 L 934.302612 99.697388 L 939 112 L 943.697388 99.697388 L 956 95 L 943.697388 90.302612 Z"/>
        <path id="Star-copy-8" fill="#ffe657" fill-rule="evenodd" stroke="none" d="M 742.5 677 L 734.348694 698.348694 L 713 706.5 L 734.348694 714.651306 L 742.5 736 L 750.651306 714.651306 L 772 706.5 L 750.651306 698.348694 Z"/>
        <path id="Star-copy-9" fill="#ffe657" fill-rule="evenodd" stroke="none" d="M 1029 545 L 1025.684204 553.684204 L 1017 557 L 1025.684204 560.315796 L 1029 569 L 1032.315796 560.315796 L 1041 557 L 1032.315796 553.684204 Z"/>
        <path id="Star-copy-10" fill="#ffe657" fill-rule="evenodd" stroke="none" d="M 627 125 L 623.684204 133.684204 L 615 137 L 623.684204 140.315796 L 627 149 L 630.315796 140.315796 L 639 137 L 630.315796 133.684204 Z"/>
        <path id="Star-copy-4" fill="#ffe657" fill-rule="evenodd" stroke="none" d="M 476 223 L 471.302643 235.302612 L 459 240 L 471.302643 244.697388 L 476 257 L 480.697357 244.697388 L 493 240 L 480.697357 235.302612 Z"/>
        <path id="Star-copy-5" fill="#ffe657" fill-rule="evenodd" stroke="none" d="M 97.5 498 L 89.348686 519.348694 L 68 527.5 L 89.348686 535.651306 L 97.5 557 L 105.651314 535.651306 L 127 527.5 L 105.651314 519.348694 Z"/>
        <path id="Star-copy-6" fill="#ffe657" fill-rule="evenodd" stroke="none" d="M 394 623 L 390.684204 631.684204 L 382 635 L 390.684204 638.315796 L 394 647 L 397.315796 638.315796 L 406 635 L 397.315796 631.684204 Z"/>
    </g>
</svg>
