<?xml version="1.0" encoding="UTF-8"?>
<!-- Generated by Pixelmator Pro 3.7.1 -->
<svg width="1366" height="768" viewBox="0 0 1366 768" xmlns="http://www.w3.org/2000/svg" xmlns:xlink="http://www.w3.org/1999/xlink">
    <linearGradient id="linearGradient1" x1="-100" y1="527.422455" x2="1527.185425" y2="527.422455" gradientUnits="userSpaceOnUse">
        <stop offset="0.001222" stop-color="#9243ff" stop-opacity="1"/>
        <stop offset="0.999537" stop-color="#4b01ff" stop-opacity="1"/>
    </linearGradient>
    <path id="Path" fill="url(#linearGradient1)" fill-rule="evenodd" stroke="none" opacity="0.4" d="M -100 162 C -100 162 685.959412 147.304688 874 404 C 1062.040649 660.695313 1477.158447 747.571472 1523 750 C 1568.841553 752.428528 1223 893 1223 893 C 1223 893 717.997437 466.460022 390 404 C 62.002563 341.539978 -58 384 -58 384 L -100 162 Z"/>
    <linearGradient id="linearGradient2" x1="-131" y1="739.151611" x2="681.433899" y2="739.151611" gradientUnits="userSpaceOnUse">
        <stop offset="0.001222" stop-color="#9243ff" stop-opacity="1"/>
        <stop offset="0.999537" stop-color="#4b01ff" stop-opacity="1"/>
    </linearGradient>
    <path id="path1" fill="url(#linearGradient2)" fill-rule="evenodd" stroke="none" opacity="0.4" d="M -131 574 C -131 574 359.626099 601.852173 635 806 C 910.373901 1010.147827 -129 833 -129 833 L -131 574 Z"/>
    <g id="Moon">
        <linearGradient id="linearGradient3" x1="568.354726" y1="419.645274" x2="1313.645274" y2="-325.645274" gradientUnits="userSpaceOnUse">
            <stop offset="0" stop-color="#d9d9d9" stop-opacity="1"/>
            <stop offset="1" stop-color="#a9a9a9" stop-opacity="1"/>
        </linearGradient>
        <filter id="filter1" x="0" y="0" width="1366" height="768" filterUnits="userSpaceOnUse" primitiveUnits="userSpaceOnUse" color-interpolation-filters="sRGB">
            <feGaussianBlur stdDeviation="52.40734"/>
        </filter>
        <path id="Moon-Shadow" fill="url(#linearGradient3)" fill-rule="evenodd" stroke="none" opacity="0.65" filter="url(#filter1)" d="M 1468 47 C 1468 -244.054077 1232.054077 -480 941 -480 C 649.945923 -480 414 -244.054077 414 47 C 414 338.054077 649.945923 574 941 574 C 1232.054077 574 1468 338.054077 1468 47 Z"/>
        <linearGradient id="linearGradient4" x1="568.354726" y1="419.645274" x2="1313.645274" y2="-325.645274" gradientUnits="userSpaceOnUse">
            <stop offset="0" stop-color="#d9d9d9" stop-opacity="1"/>
            <stop offset="1" stop-color="#a9a9a9" stop-opacity="1"/>
        </linearGradient>
        <path id="path2" fill="url(#linearGradient4)" fill-rule="evenodd" stroke="none" d="M 1468 47 C 1468 -244.054077 1232.054077 -480 941 -480 C 649.945923 -480 414 -244.054077 414 47 C 414 338.054077 649.945923 574 941 574 C 1232.054077 574 1468 338.054077 1468 47 Z"/>
        <mask id="mask1" maskUnits="userSpaceOnUse" maskContentUnits="userSpaceOnUse" mask-type="alpha">
            <linearGradient id="linearGradient5" x1="568.354726" y1="419.645274" x2="1313.645274" y2="-325.645274" gradientUnits="userSpaceOnUse">
                <stop offset="0" stop-color="#d9d9d9" stop-opacity="1"/>
                <stop offset="1" stop-color="#a9a9a9" stop-opacity="1"/>
            </linearGradient>
            <path id="path3" fill="url(#linearGradient5)" fill-rule="evenodd" stroke="none" d="M 1468 47 C 1468 -244.054077 1232.054077 -480 941 -480 C 649.945923 -480 414 -244.054077 414 47 C 414 338.054077 649.945923 574 941 574 C 1232.054077 574 1468 338.054077 1468 47 Z"/>
        </mask>
        <g id="Group" mask="url(#mask1)">
            <g id="Terrain">
                <path id="path4" fill="#000000" fill-rule="evenodd" stroke="none" opacity="0.2" d="M 521 24 C 567.099854 23.008667 615.528503 -12.223389 649 47 C 682.471497 106.223389 722.725891 134.159424 752 133 C 781.274109 131.840576 840.515686 420.357666 977 416 C 1113.484253 411.642334 1209.697754 488.722168 1247 443 C 1284.302246 397.277832 1383.104858 365.661682 1349 311 C 1314.895142 256.338318 1518.436035 25.689453 1331 82 C 1143.563965 138.310547 1017 -47 1017 -47 L 437 -37 C 437 -37 474.900146 24.991333 521 24 Z"/>
                <path id="path5" fill="#000000" fill-rule="evenodd" stroke="none" opacity="0.2" d="M 863 47 C 917.935852 28.743835 870.00354 108.935181 1028 114 C 1185.99646 119.064819 1379.921265 161.615295 1300 190 C 1220.078735 218.384705 1242.152954 491.353119 1124 350 C 1005.847046 208.646851 997.721008 264.839417 913 217 C 748.9328 124.35614 808.064148 65.256165 863 47 Z"/>
                <path id="path6" fill="#000000" fill-rule="evenodd" stroke="none" opacity="0.2" d="M 470 106 C 473.572601 82.408447 586.139282 123.93689 569 163 C 551.860718 202.06311 523.722778 321.172485 522 239 C 520.277222 156.827515 494.794403 147.835632 469 158 C 443.205597 168.164368 466.427399 129.591553 470 106 Z"/>
                <path id="Path-copy" fill="#000000" fill-rule="evenodd" stroke="none" opacity="0.2" d="M 505 300 C 508.572632 276.408447 593.139282 316.93689 576 356 C 558.860718 395.06311 640.104126 356.686066 697 416 C 746.507446 467.611481 512.451904 402.57605 505 370 C 498.817566 342.973328 501.427429 323.591553 505 300 Z"/>
                <path id="path7" fill="#000000" fill-rule="evenodd" stroke="none" opacity="0.2" d="M 649 146 C 668.785522 166.752808 740.834534 166.014832 673 212 C 605.165466 257.985199 725.313293 232.408691 731 256 C 738.022339 285.132233 745.528137 346.277344 692 337 C 547.529846 311.960876 622.348511 255.196533 612 220 C 607.28363 203.959045 667.754089 202.51593 636 190 C 604.245911 177.48407 570.456299 72.929749 593 72 C 615.543701 71.070251 629.214478 125.247192 649 146 Z"/>
                <path id="path8" fill="#000000" fill-rule="evenodd" stroke="none" opacity="0.2" d="M 763 398 C 794.579407 432.058044 871.748779 528.828308 971 491 C 1070.251221 453.171692 1163 481 1163 481 C 1163 481 1287.990479 539.004944 1184 548 C 1080.009521 556.995056 876.085022 606.013 778 512 C 750.330078 485.47879 731.420593 363.941956 763 398 Z"/>
                <path id="path9" fill="#000000" fill-rule="evenodd" stroke="none" opacity="0.2" d="M 823 314 C 798.327576 308.163788 873.156067 234.502441 941 313 C 1008.843933 391.497559 1142.737427 434.337463 1030 435 C 917.262634 435.662537 882.24054 455.851532 871 392 C 859.75946 328.148468 847.672424 319.836212 823 314 Z"/>
            </g>
        </g>
    </g>
    <g id="Stars-copy">
        <path id="Star" fill="#ffe657" fill-rule="evenodd" stroke="none" d="M 167.5 661 L 159.348679 639.651306 L 138 631.5 L 159.348679 623.348694 L 167.5 602 L 175.651306 623.348694 L 197 631.5 L 175.651306 639.651306 Z"/>
        <path id="Star-copy" fill="#ffe657" fill-rule="evenodd" stroke="none" d="M 103 414 L 96.368423 396.631592 L 79 390 L 96.368423 383.368408 L 103 366 L 109.631577 383.368408 L 127 390 L 109.631577 396.631592 Z"/>
        <path id="Star-copy-2" fill="#ffe657" fill-rule="evenodd" stroke="none" d="M 539 538 L 534.302612 525.697388 L 522 521 L 534.302612 516.302612 L 539 504 L 543.697388 516.302612 L 556 521 L 543.697388 525.697388 Z"/>
        <path id="Star-copy-3" fill="#ffe657" fill-rule="evenodd" stroke="none" d="M 292.5 425 L 284.348694 403.651306 L 263 395.5 L 284.348694 387.348694 L 292.5 366 L 300.651306 387.348694 L 322 395.5 L 300.651306 403.651306 Z"/>
        <path id="Star-copy-11" fill="#ffe657" fill-rule="evenodd" stroke="none" d="M 440 222 L 436.684204 213.315796 L 428 210 L 436.684204 206.684204 L 440 198 L 443.315796 206.684204 L 452 210 L 443.315796 213.315796 Z"/>
        <path id="Star-copy-12" fill="#ffe657" fill-rule="evenodd" stroke="none" d="M 1270 700 L 1263.368408 682.631592 L 1246 676 L 1263.368408 669.368408 L 1270 652 L 1276.631592 669.368408 L 1294 676 L 1276.631592 682.631592 Z"/>
        <path id="Star-copy-7" fill="#ffe657" fill-rule="evenodd" stroke="none" d="M 939 691 L 934.302612 678.697388 L 922 674 L 934.302612 669.302612 L 939 657 L 943.697388 669.302612 L 956 674 L 943.697388 678.697388 Z"/>
        <path id="Star-copy-8" fill="#ffe657" fill-rule="evenodd" stroke="none" d="M 644.5 504 L 636.348694 482.651306 L 615 474.5 L 636.348694 466.348694 L 644.5 445 L 652.651306 466.348694 L 674 474.5 L 652.651306 482.651306 Z"/>
        <path id="Star-copy-9" fill="#ffe657" fill-rule="evenodd" stroke="none" d="M 1258 474 L 1254.684204 465.315796 L 1246 462 L 1254.684204 458.684204 L 1258 450 L 1261.315796 458.684204 L 1270 462 L 1261.315796 465.315796 Z"/>
        <path id="Star-copy-10" fill="#ffe657" fill-rule="evenodd" stroke="none" d="M 627 691 L 623.684204 682.315796 L 615 679 L 623.684204 675.684204 L 627 667 L 630.315796 675.684204 L 639 679 L 630.315796 682.315796 Z"/>
        <path id="Star-copy-4" fill="#ffe657" fill-rule="evenodd" stroke="none" d="M 387 652 L 382.302643 639.697388 L 370 635 L 382.302643 630.302612 L 387 618 L 391.697357 630.302612 L 404 635 L 391.697357 639.697388 Z"/>
        <path id="Star-copy-5" fill="#ffe657" fill-rule="evenodd" stroke="none" d="M 126.5 168 L 118.348686 146.651306 L 97 138.5 L 118.348686 130.348694 L 126.5 109 L 134.651306 130.348694 L 156 138.5 L 134.651306 146.651306 Z"/>
        <path id="Star-copy-6" fill="#ffe657" fill-rule="evenodd" stroke="none" d="M 197 246 L 193.684204 237.315796 L 185 234 L 193.684204 230.684204 L 197 222 L 200.315796 230.684204 L 209 234 L 200.315796 237.315796 Z"/>
    </g>
</svg>
