<?xml version="1.0" encoding="UTF-8"?>
<!-- Generated by Pixelmator Pro 3.7.1 -->
<svg width="1366" height="768" viewBox="0 0 1366 768" xmlns="http://www.w3.org/2000/svg" xmlns:xlink="http://www.w3.org/1999/xlink">
    <linearGradient id="linearGradient1" x1="-156.33149" y1="562.869981" x2="473.844535" y2="562.869981" gradientUnits="userSpaceOnUse">
        <stop offset="0.001222" stop-color="#9243ff" stop-opacity="1"/>
        <stop offset="0.999537" stop-color="#4b01ff" stop-opacity="1"/>
    </linearGradient>
    <path id="Path-copy" fill="url(#linearGradient1)" fill-rule="evenodd" stroke="none" opacity="0.4" d="M -156.331497 236 C -156.331497 236 303.618561 411.132721 451.668488 764 C 599.718445 1116.86731 -42.000008 615 -42.000008 615 L -156.331497 236 Z"/>
    <linearGradient id="linearGradient2" x1="77.540354" y1="192.239868" x2="1694.440379" y2="192.239868" gradientUnits="userSpaceOnUse">
        <stop offset="0.001222" stop-color="#9243ff" stop-opacity="1"/>
        <stop offset="0.999537" stop-color="#4b01ff" stop-opacity="1"/>
    </linearGradient>
    <path id="Path-copy-2" fill="url(#linearGradient2)" fill-rule="evenodd" stroke="none" opacity="0.4" d="M 430.605896 -243 C 430.605896 -243 616.25531 494.960724 1344.605957 497 C 2072.956543 499.039276 1438 768 1438 768 C 1438 768 2.633115 217.146118 80.605896 -188 C 158.578674 -593.146118 430.605896 -243 430.605896 -243 Z"/>
    <g id="Planet-copy">
        <linearGradient id="linearGradient3" x1="734.449815" y1="523.625174" x2="463.550185" y2="870.360889" gradientUnits="userSpaceOnUse">
            <stop offset="0" stop-color="#ff0167" stop-opacity="1"/>
            <stop offset="0.640487" stop-color="#6800f2" stop-opacity="1"/>
        </linearGradient>
        <path id="Ring-SMall-copy" fill="none" stroke="url(#linearGradient3)" stroke-width="8.763763" stroke-linecap="round" stroke-linejoin="round" opacity="0.4" d="M 819.006958 696.993042 C 819.006958 575.486572 720.50647 476.986053 599 476.986053 C 477.4935 476.986053 378.993042 575.486572 378.993042 696.993042 C 378.993042 818.499512 477.4935 917 599 917 C 720.50647 917 819.006958 818.499512 819.006958 696.993042 Z"/>
        <linearGradient id="linearGradient4" x1="724.896361" y1="536.504194" x2="473.27133" y2="858.168248" gradientUnits="userSpaceOnUse">
            <stop offset="0" stop-color="#ff0167" stop-opacity="1"/>
            <stop offset="0.640487" stop-color="#6800f2" stop-opacity="1"/>
        </linearGradient>
        <path id="Ring-Mini-copy" fill="none" stroke="url(#linearGradient4)" stroke-width="2.190941" stroke-linecap="round" stroke-linejoin="round" opacity="0.4" d="M 803.437256 697.336243 C 803.437256 584.615601 711.945129 493.237457 599.083862 493.237457 C 486.222595 493.237457 394.730438 584.615601 394.730438 697.336243 C 394.730438 810.056885 486.222595 901.434998 599.083862 901.434998 C 711.945129 901.434998 803.437256 810.056885 803.437256 697.336243 Z"/>
        <linearGradient id="linearGradient5" x1="698.894391" y1="569.044007" x2="498.428665" y2="825.628435" gradientUnits="userSpaceOnUse">
            <stop offset="0" stop-color="#ff0167" stop-opacity="1"/>
            <stop offset="0.640487" stop-color="#6800f2" stop-opacity="1"/>
        </linearGradient>
        <path id="Ring-copy" fill="none" stroke="url(#linearGradient5)" stroke-width="47.386116" stroke-linecap="round" stroke-linejoin="round" opacity="0.3" d="M 761.466675 697.336243 C 761.466675 607.421387 688.576355 534.531067 598.66156 534.531067 C 508.746735 534.531067 435.856384 607.421387 435.856384 697.336243 C 435.856384 787.251038 508.746735 860.141357 598.66156 860.141357 C 688.576355 860.141357 761.466675 787.251038 761.466675 697.336243 Z"/>
        <linearGradient id="linearGradient6" x1="695.579238" y1="573.349142" x2="502.420762" y2="821.415994" gradientUnits="userSpaceOnUse">
            <stop offset="0.332634" stop-color="#a500f2" stop-opacity="1"/>
            <stop offset="0.615021" stop-color="#ff0194" stop-opacity="1"/>
        </linearGradient>
        <path id="path1" fill="url(#linearGradient6)" fill-rule="evenodd" stroke="none" d="M 756.200012 697.382568 C 756.200012 610.563416 685.819153 540.182556 599 540.182556 C 512.180847 540.182556 441.799988 610.563416 441.799988 697.382568 C 441.799988 784.201721 512.180847 854.582581 599 854.582581 C 685.819153 854.582581 756.200012 784.201721 756.200012 697.382568 Z"/>
        <mask id="mask1" maskUnits="userSpaceOnUse" maskContentUnits="userSpaceOnUse" mask-type="alpha">
            <linearGradient id="linearGradient7" x1="695.579238" y1="573.349142" x2="502.420762" y2="821.415994" gradientUnits="userSpaceOnUse">
                <stop offset="0.332634" stop-color="#a500f2" stop-opacity="1"/>
                <stop offset="0.615021" stop-color="#ff0194" stop-opacity="1"/>
            </linearGradient>
            <path id="path2" fill="url(#linearGradient7)" fill-rule="evenodd" stroke="none" d="M 756.200012 697.382568 C 756.200012 610.563416 685.819153 540.182556 599 540.182556 C 512.180847 540.182556 441.799988 610.563416 441.799988 697.382568 C 441.799988 784.201721 512.180847 854.582581 599 854.582581 C 685.819153 854.582581 756.200012 784.201721 756.200012 697.382568 Z"/>
        </mask>
        <g id="Group" mask="url(#mask1)">
            <g id="Terrain">
                <path id="Path" fill="#ffffff" fill-rule="evenodd" stroke="none" opacity="0.2" d="M 463 606 C 463 606 555.669922 689.164917 645 659 C 734.330078 628.835083 766 635 766 635 L 777 706 C 777 706 614.323975 770.056396 532 703 C 449.675995 635.943604 442 614 442 614 L 463 606 Z"/>
                <path id="path3" fill="#ffffff" fill-rule="evenodd" stroke="none" opacity="0.2" d="M 720 809 C 720 809 628.998291 790.201294 568 806 C 507.00174 821.798706 486 824 486 824 L 616 872 L 720 809 Z"/>
                <path id="path4" fill="#ffffff" fill-rule="evenodd" stroke="none" opacity="0.2" d="M 431 712 C 431 712 474.994598 696.759338 515 734 C 555.005371 771.240662 601.638062 785.460999 516 778 C 430.361938 770.539001 434 792 434 792 L 431 712 Z"/>
                <path id="path5" fill="#ffffff" fill-rule="evenodd" stroke="none" opacity="0.2" d="M 519 558 C 519 558 567.261841 621.735107 643 608 C 718.738159 594.264893 745 580 745 580 L 650 525 L 545 519 L 519 558 Z"/>
                <path id="path6" fill="#ffffff" fill-rule="evenodd" stroke="none" opacity="0.2" d="M 571 649 C 571 649 669.921143 634.949768 698 684 C 726.078796 733.050232 738.542725 717.082092 745 720 C 751.457214 722.917908 871.452942 760.08606 709 766 C 546.547058 771.91394 571 649 571 649 Z"/>
            </g>
        </g>
    </g>
    <g id="Planet-2-copy">
        <linearGradient id="linearGradient8" x1="1153.856331" y1="444.752512" x2="1176.143669" y2="-56.766449" gradientUnits="userSpaceOnUse">
            <stop offset="0" stop-color="#ff0167" stop-opacity="1"/>
            <stop offset="0.640487" stop-color="#6800f2" stop-opacity="1"/>
        </linearGradient>
        <path id="path7" fill="none" stroke="url(#linearGradient8)" stroke-width="8.763763" stroke-linecap="round" stroke-linejoin="round" opacity="0.4" d="M 1416.006958 193.993042 C 1416.006958 55.365723 1303.627319 -57.013916 1165 -57.013916 C 1026.372681 -57.013916 913.993042 55.365723 913.993042 193.993042 C 913.993042 332.620361 1026.372681 445 1165 445 C 1303.627319 445 1416.006958 332.620361 1416.006958 193.993042 Z"/>
        <linearGradient id="linearGradient9" x1="1156.011401" y1="398.233756" x2="1174.15629" y2="-9.561314" gradientUnits="userSpaceOnUse">
            <stop offset="0" stop-color="#ff0167" stop-opacity="1"/>
            <stop offset="0.640487" stop-color="#6800f2" stop-opacity="1"/>
        </linearGradient>
        <path id="path8" fill="none" stroke="url(#linearGradient9)" stroke-width="2.190941" stroke-linecap="round" stroke-linejoin="round" opacity="0.4" d="M 1369.437256 194.336243 C 1369.437256 81.615601 1277.945068 -9.762573 1165.083862 -9.762573 C 1052.222534 -9.762573 960.730469 81.615601 960.730469 194.336243 C 960.730469 307.056854 1052.222534 398.434998 1165.083862 398.434998 C 1277.945068 398.434998 1369.437256 307.056854 1369.437256 194.336243 Z"/>
        <linearGradient id="linearGradient10" x1="1157.040367" y1="365.830743" x2="1172.282688" y2="22.841699" gradientUnits="userSpaceOnUse">
            <stop offset="0" stop-color="#ff0167" stop-opacity="1"/>
            <stop offset="0.640487" stop-color="#6800f2" stop-opacity="1"/>
        </linearGradient>
        <path id="path9" fill="none" stroke="url(#linearGradient10)" stroke-width="47.386116" stroke-linecap="round" stroke-linejoin="round" opacity="0.3" d="M 1336.325317 194.336243 C 1336.325317 99.528931 1259.468872 22.672485 1164.661499 22.672485 C 1069.854248 22.672485 992.997742 99.528931 992.997742 194.336243 C 992.997742 289.143494 1069.854248 366 1164.661499 366 C 1259.468872 366 1336.325317 289.143494 1336.325317 194.336243 Z"/>
        <linearGradient id="linearGradient11" x1="1299.567284" y1="275.644405" x2="1030.432716" y2="113.120731" gradientUnits="userSpaceOnUse">
            <stop offset="0.184248" stop-color="#00f21c" stop-opacity="1"/>
            <stop offset="0.807374" stop-color="#c3ff01" stop-opacity="1"/>
        </linearGradient>
        <path id="path10" fill="url(#linearGradient11)" fill-rule="evenodd" stroke="none" d="M 1322.199951 194.382568 C 1322.199951 107.563416 1251.819214 37.182556 1165 37.182556 C 1078.180786 37.182556 1007.799988 107.563416 1007.799988 194.382568 C 1007.799988 281.201721 1078.180786 351.582581 1165 351.582581 C 1251.819214 351.582581 1322.199951 281.201721 1322.199951 194.382568 Z"/>
        <mask id="mask2" maskUnits="userSpaceOnUse" maskContentUnits="userSpaceOnUse" mask-type="alpha">
            <linearGradient id="linearGradient12" x1="1299.567284" y1="275.644405" x2="1030.432716" y2="113.120731" gradientUnits="userSpaceOnUse">
                <stop offset="0.184248" stop-color="#00f21c" stop-opacity="1"/>
                <stop offset="0.807374" stop-color="#c3ff01" stop-opacity="1"/>
            </linearGradient>
            <path id="path11" fill="url(#linearGradient12)" fill-rule="evenodd" stroke="none" d="M 1322.199951 194.382568 C 1322.199951 107.563416 1251.819214 37.182556 1165 37.182556 C 1078.180786 37.182556 1007.799988 107.563416 1007.799988 194.382568 C 1007.799988 281.201721 1078.180786 351.582581 1165 351.582581 C 1251.819214 351.582581 1322.199951 281.201721 1322.199951 194.382568 Z"/>
        </mask>
        <g id="g1" mask="url(#mask2)">
            <g id="g2">
                <path id="path12" fill="#000000" fill-rule="evenodd" stroke="none" opacity="0.2" d="M 1045 68 C 1045 68 1139.61084 44.650879 1186 97 C 1232.38916 149.349121 1364 111 1364 111 L 1369 215 C 1369 215 1208.683838 265.988403 1146 185 C 1083.316162 104.011597 990 136 990 136 L 1045 68 Z"/>
                <path id="path13" fill="#000000" fill-rule="evenodd" stroke="none" opacity="0.2" d="M 984 194 C 984 194 959.496338 240.793274 1109 254 C 1258.503662 267.206726 1294 333 1294 333 L 1251 353 C 1251 353 1270.266724 311.775665 1180 312 C 1089.733276 312.224335 1054.749023 294.014465 1043 253 C 1031.250977 211.985535 858 366 858 366 L 984 194 Z"/>
                <path id="path14" fill="#000000" fill-rule="evenodd" stroke="none" opacity="0.2" d="M 1103 162 C 1145.661011 171.381409 1177.960571 114.170105 1231 154 C 1284.039307 193.829895 1275 227 1275 227 C 1275 227 1268.901123 329.749542 1180 244 C 1091.098755 158.250427 1077 208 1077 208 C 1077 208 1060.338989 152.618591 1103 162 Z"/>
            </g>
        </g>
    </g>
    <g id="Moon-copy">
        <linearGradient id="linearGradient13" x1="-55.297157" y1="135.923663" x2="146.315902" y2="-65.689397" gradientUnits="userSpaceOnUse" gradientTransform="matrix(0.665244 -0.746626 0.746626 0.665244 -10.984834 45.734132)">
            <stop offset="0" stop-color="#d9d9d9" stop-opacity="1"/>
            <stop offset="1" stop-color="#a9a9a9" stop-opacity="1"/>
        </linearGradient>
        <filter id="filter1" x="0" y="0" width="1366" height="768" filterUnits="userSpaceOnUse" primitiveUnits="userSpaceOnUse" color-interpolation-filters="sRGB">
            <feGaussianBlur stdDeviation="14.177027"/>
        </filter>
        <path id="Moon-Shadow" fill="url(#linearGradient13)" fill-rule="evenodd" stroke="none" opacity="0.65" filter="url(#filter1)" d="M 140.3479 -71.323303 C 81.562485 -123.701172 -8.553202 -118.506836 -60.931068 -59.721375 C -113.308945 -0.935974 -108.114578 89.179688 -49.329159 141.557556 C 9.456274 193.935425 99.571938 188.741089 151.949814 129.955627 C 204.327682 71.170227 199.133331 -18.945435 140.3479 -71.323303 Z"/>
        <linearGradient id="linearGradient14" x1="-55.297157" y1="135.923663" x2="146.315902" y2="-65.689397" gradientUnits="userSpaceOnUse" gradientTransform="matrix(0.665244 -0.746626 0.746626 0.665244 -10.984834 45.734132)">
            <stop offset="0" stop-color="#d9d9d9" stop-opacity="1"/>
            <stop offset="1" stop-color="#a9a9a9" stop-opacity="1"/>
        </linearGradient>
        <path id="Moon" fill="url(#linearGradient14)" fill-rule="evenodd" stroke="none" d="M 140.3479 -71.323303 C 81.562485 -123.701172 -8.553202 -118.506836 -60.931068 -59.721375 C -113.308945 -0.935974 -108.114578 89.179688 -49.329159 141.557556 C 9.456274 193.935425 99.571938 188.741089 151.949814 129.955627 C 204.327682 71.170227 199.133331 -18.945435 140.3479 -71.323303 Z"/>
        <mask id="mask3" maskUnits="userSpaceOnUse" maskContentUnits="userSpaceOnUse" mask-type="alpha">
            <linearGradient id="linearGradient15" x1="-55.297157" y1="135.923663" x2="146.315902" y2="-65.689397" gradientUnits="userSpaceOnUse" gradientTransform="matrix(0.665244 -0.746626 0.746626 0.665244 -10.984834 45.734132)">
                <stop offset="0" stop-color="#d9d9d9" stop-opacity="1"/>
                <stop offset="1" stop-color="#a9a9a9" stop-opacity="1"/>
            </linearGradient>
            <path id="path15" fill="url(#linearGradient15)" fill-rule="evenodd" stroke="none" d="M 140.3479 -71.323303 C 81.562485 -123.701172 -8.553202 -118.506836 -60.931068 -59.721375 C -113.308945 -0.935974 -108.114578 89.179688 -49.329159 141.557556 C 9.456274 193.935425 99.571938 188.741089 151.949814 129.955627 C 204.327682 71.170227 199.133331 -18.945435 140.3479 -71.323303 Z"/>
        </mask>
        <g id="g3" mask="url(#mask3)">
            <g id="g4">
                <path id="path16" fill="#000000" fill-rule="evenodd" stroke="none" opacity="0.2" d="M -34.718925 115.807251 C -26.623053 106.317871 -25.023836 90.196228 -7.038731 94.093628 C 10.946375 97.991028 23.832886 94.888 28.866859 88.766785 C 33.900833 82.645508 102.83493 122.601563 126.516411 94.251038 C 150.197876 65.900513 183.080536 60.339111 180.558716 44.576904 C 178.036896 28.814636 189.431686 3.169434 172.253952 0.220886 C 155.076218 -2.727722 145.120148 -85.345093 122.762581 -37.354248 C 100.405014 10.636597 40.200695 2.850891 40.200695 2.850891 L -62.15593 121.795593 C -62.15593 121.795593 -42.814796 125.296631 -34.718925 115.807251 Z"/>
                <path id="path17" fill="#000000" fill-rule="evenodd" stroke="none" opacity="0.2" d="M 31.472551 50.871155 C 37.67149 36.490112 45.242214 60.602417 74.698105 29.602661 C 104.153992 -1.397095 147.646652 -32.907593 138.99707 -11.657471 C 130.347473 9.592651 189.45253 54.257446 139.640121 52.683472 C 89.827705 51.109558 99.714798 62.863159 74.806137 71.365479 C 26.569052 87.830688 25.273611 65.252136 31.472551 50.871155 Z"/>
                <path id="path18" fill="#000000" fill-rule="evenodd" stroke="none" opacity="0.2" d="M -27.334955 140.864624 C -31.456919 135.897522 -2.811827 120.635376 1.993544 131.126831 C 6.798914 141.618286 25.792259 168.736267 8.885502 154.296509 C -8.021255 139.856812 -14.423252 143.385498 -17.012253 150.424438 C -19.601254 157.46344 -23.212992 145.831726 -27.334955 140.864624 Z"/>
                <path id="path19" fill="#000000" fill-rule="evenodd" stroke="none" opacity="0.2" d="M 18.146626 168.707581 C 14.024667 163.740479 37.428921 153.953674 42.234291 164.445129 C 47.039661 174.936584 53.908989 151.621216 76.127815 150.803833 C 95.461334 150.092529 40.205387 185.662048 32.284824 181.304749 C 25.713545 177.689758 22.268595 173.674683 18.146626 168.707581 Z"/>
                <path id="path20" fill="#000000" fill-rule="evenodd" stroke="none" opacity="0.2" d="M 12.95672 111.909607 C 20.708841 111.648071 33.525677 96.963196 30.606045 118.939514 C 27.68642 140.915833 44.142338 112.046326 49.93055 115.143188 C 57.078243 118.967468 70.778725 128.455139 59.272053 137.596924 C 28.216053 162.270142 30.215429 136.94342 21.244326 132.699646 C 17.155708 130.765503 27.746454 118.292297 19.504118 122.45343 C 11.26178 126.614624 -15.936253 114.623718 -12.06709 109.903137 C -8.197928 105.182617 5.204599 112.171082 12.95672 111.909607 Z"/>
                <path id="path21" fill="#000000" fill-rule="evenodd" stroke="none" opacity="0.2" d="M 84.369591 134.234253 C 96.93145 133.985107 130.363892 135.813538 140.584717 108.959839 C 150.805557 82.106079 173.117157 68.381165 173.117157 68.381165 C 173.117157 68.381165 207.325851 53.574829 190.428574 76.19696 C 173.531296 98.819092 146.733566 148.82782 110.094048 151.719971 C 99.757988 152.535889 71.807732 134.483398 84.369591 134.234253 Z"/>
                <path id="path22" fill="#000000" fill-rule="evenodd" stroke="none" opacity="0.2" d="M 78.201309 106.999207 C 72.582512 110.932129 71.170898 82.562683 99.234528 82.986267 C 127.298157 83.409912 160.046082 64.076355 139.891754 86.965637 C 119.737442 109.854919 117.51255 120.561646 102.593346 111.341248 C 87.674141 102.120911 83.820107 103.066284 78.201309 106.999207 Z"/>
            </g>
        </g>
    </g>
    <g id="Stars-copy">
        <path id="Star" fill="#ffe657" fill-rule="evenodd" stroke="none" d="M 437.5 119 L 429.348694 140.348694 L 408 148.5 L 429.348694 156.651306 L 437.5 178 L 445.651306 156.651306 L 467 148.5 L 445.651306 140.348694 Z"/>
        <path id="Star-copy" fill="#ffe657" fill-rule="evenodd" stroke="none" d="M 82 318 L 75.368423 335.368408 L 58 342 L 75.368423 348.631592 L 82 366 L 88.631577 348.631592 L 106 342 L 88.631577 335.368408 Z"/>
        <path id="Star-copy-13" fill="#ffe657" fill-rule="evenodd" stroke="none" d="M 118 659 L 111.368423 676.368408 L 94 683 L 111.368423 689.631592 L 118 707 L 124.631577 689.631592 L 142 683 L 124.631577 676.368408 Z"/>
        <path id="Star-copy-2" fill="#ffe657" fill-rule="evenodd" stroke="none" d="M 786 149 L 781.302612 161.302612 L 769 166 L 781.302612 170.697388 L 786 183 L 790.697388 170.697388 L 803 166 L 790.697388 161.302612 Z"/>
        <path id="Star-copy-3" fill="#ffe657" fill-rule="evenodd" stroke="none" d="M 1230.5 480 L 1222.348633 501.348694 L 1201 509.5 L 1222.348633 517.651306 L 1230.5 539 L 1238.651367 517.651306 L 1260 509.5 L 1238.651367 501.348694 Z"/>
        <path id="Star-copy-11" fill="#ffe657" fill-rule="evenodd" stroke="none" d="M 519 451 L 515.684204 459.684204 L 507 463 L 515.684204 466.315796 L 519 475 L 522.315796 466.315796 L 531 463 L 522.315796 459.684204 Z"/>
        <path id="Star-copy-12" fill="#ffe657" fill-rule="evenodd" stroke="none" d="M 1308 27 L 1301.368408 44.368408 L 1284 51 L 1301.368408 57.631592 L 1308 75 L 1314.631592 57.631592 L 1332 51 L 1314.631592 44.368408 Z"/>
        <path id="Star-copy-7" fill="#ffe657" fill-rule="evenodd" stroke="none" d="M 953 60 L 948.302612 72.302612 L 936 77 L 948.302612 81.697388 L 953 94 L 957.697388 81.697388 L 970 77 L 957.697388 72.302612 Z"/>
        <path id="Star-copy-8" fill="#ffe657" fill-rule="evenodd" stroke="none" d="M 756.5 659 L 748.348694 680.348694 L 727 688.5 L 748.348694 696.651306 L 756.5 718 L 764.651306 696.651306 L 786 688.5 L 764.651306 680.348694 Z"/>
        <path id="Star-copy-9" fill="#ffe657" fill-rule="evenodd" stroke="none" d="M 970 384 L 966.684204 392.684204 L 958 396 L 966.684204 399.315796 L 970 408 L 973.315796 399.315796 L 982 396 L 973.315796 392.684204 Z"/>
        <path id="Star-copy-10" fill="#ffe657" fill-rule="evenodd" stroke="none" d="M 641 107 L 637.684204 115.684204 L 629 119 L 637.684204 122.315796 L 641 131 L 644.315796 122.315796 L 653 119 L 644.315796 115.684204 Z"/>
        <path id="Star-copy-4" fill="#ffe657" fill-rule="evenodd" stroke="none" d="M 595 332 L 590.302612 344.302643 L 578 349 L 590.302612 353.697357 L 595 366 L 599.697388 353.697357 L 612 349 L 599.697388 344.302643 Z"/>
        <path id="Star-copy-5" fill="#ffe657" fill-rule="evenodd" stroke="none" d="M 1042.5 654 L 1034.348633 675.348694 L 1013 683.5 L 1034.348633 691.651306 L 1042.5 713 L 1050.651367 691.651306 L 1072 683.5 L 1050.651367 675.348694 Z"/>
        <path id="Star-copy-6" fill="#ffe657" fill-rule="evenodd" stroke="none" d="M 408 605 L 404.684204 613.684204 L 396 617 L 404.684204 620.315796 L 408 629 L 411.315796 620.315796 L 420 617 L 411.315796 613.684204 Z"/>
    </g>
</svg>
