<?xml version="1.0" encoding="UTF-8"?>
<!-- Generated by Pixelmator Pro 3.7.1 -->
<svg width="1366" height="768" viewBox="0 0 1366 768" xmlns="http://www.w3.org/2000/svg" xmlns:xlink="http://www.w3.org/1999/xlink">
    <linearGradient id="linearGradient1" x1="-151" y1="511.064697" x2="1586" y2="511.064697" gradientUnits="userSpaceOnUse">
        <stop offset="0.001222" stop-color="#9243ff" stop-opacity="1"/>
        <stop offset="0.999537" stop-color="#4b01ff" stop-opacity="1"/>
    </linearGradient>
    <path id="Wave" fill="url(#linearGradient1)" fill-rule="evenodd" stroke="none" opacity="0.4" d="M -126 468 C -126 468 267.699432 575.235168 730 341 C 1192.300537 106.764832 1586 177 1586 177 L 1366 855 L -151 809 L -126 468 Z"/>
    <linearGradient id="linearGradient2" x1="2004.872078" y1="132.761144" x2="521.127922" y2="1982.238856" gradientUnits="userSpaceOnUse">
        <stop offset="0" stop-color="#ff0167" stop-opacity="1"/>
        <stop offset="0.640487" stop-color="#6800f2" stop-opacity="1"/>
    </linearGradient>
    <path id="Ring-SMall" fill="none" stroke="url(#linearGradient2)" stroke-width="48" stroke-linecap="round" stroke-linejoin="round" opacity="0.4" d="M 2468 1057.5 C 2468 409.388031 1928.503174 -116.010559 1263 -116.010559 C 597.496887 -116.010559 58 409.388031 58 1057.5 C 58 1705.611938 597.496887 2231.010498 1263 2231.010498 C 1928.503174 2231.010498 2468 1705.611938 2468 1057.5 Z"/>
    <linearGradient id="linearGradient3" x1="1949.462545" y1="201.828776" x2="576.537455" y2="1913.171224" gradientUnits="userSpaceOnUse">
        <stop offset="0" stop-color="#ff0167" stop-opacity="1"/>
        <stop offset="0.640487" stop-color="#6800f2" stop-opacity="1"/>
    </linearGradient>
    <path id="Ring-Mini" fill="none" stroke="url(#linearGradient3)" stroke-width="12" stroke-linecap="round" stroke-linejoin="round" opacity="0.4" d="M 2378 1057.5 C 2378 457.794739 1878.797485 -28.362488 1263 -28.362488 C 647.202515 -28.362488 148 457.794739 148 1057.5 C 148 1657.205322 647.202515 2143.362305 1263 2143.362305 C 1878.797485 2143.362305 2378 1657.205322 2378 1057.5 Z"/>
    <linearGradient id="linearGradient4" x1="1886.647453" y1="280.127392" x2="639.352547" y2="1834.872608" gradientUnits="userSpaceOnUse">
        <stop offset="0" stop-color="#ff0167" stop-opacity="1"/>
        <stop offset="0.640487" stop-color="#6800f2" stop-opacity="1"/>
    </linearGradient>
    <path id="Ring" fill="none" stroke="url(#linearGradient4)" stroke-width="128" stroke-linecap="round" stroke-linejoin="round" opacity="0.4" d="M 2275.971436 1057.5 C 2275.971436 512.671143 1822.448608 71 1263 71 C 703.551331 71 250.028625 512.671143 250.028625 1057.5 C 250.028625 1602.328857 703.551331 2044 1263 2044 C 1822.448608 2044 2275.971436 1602.328857 2275.971436 1057.5 Z"/>
    <linearGradient id="linearGradient5" x1="1791.974072" y1="395.909493" x2="734.025928" y2="1719.090507" gradientUnits="userSpaceOnUse">
        <stop offset="0.332634" stop-color="#a500f2" stop-opacity="1"/>
        <stop offset="0.615021" stop-color="#ff0194" stop-opacity="1"/>
    </linearGradient>
    <path id="Planet" fill="url(#linearGradient5)" fill-rule="evenodd" stroke="none" d="M 2124 1057.5 C 2124 594.40918 1738.517212 219 1263 219 C 787.482788 219 402 594.40918 402 1057.5 C 402 1520.59082 787.482788 1896 1263 1896 C 1738.517212 1896 2124 1520.59082 2124 1057.5 Z"/>
    <mask id="mask1" maskUnits="userSpaceOnUse" maskContentUnits="userSpaceOnUse" mask-type="alpha">
        <linearGradient id="linearGradient6" x1="1791.974072" y1="395.909493" x2="734.025928" y2="1719.090507" gradientUnits="userSpaceOnUse">
            <stop offset="0.332634" stop-color="#a500f2" stop-opacity="1"/>
            <stop offset="0.615021" stop-color="#ff0194" stop-opacity="1"/>
        </linearGradient>
        <path id="path1" fill="url(#linearGradient6)" fill-rule="evenodd" stroke="none" d="M 2124 1057.5 C 2124 594.40918 1738.517212 219 1263 219 C 787.482788 219 402 594.40918 402 1057.5 C 402 1520.59082 787.482788 1896 1263 1896 C 1738.517212 1896 2124 1520.59082 2124 1057.5 Z"/>
    </mask>
    <g id="Group" mask="url(#mask1)">
        <g id="Terrain">
            <path id="Path" fill="#ffffff" fill-rule="evenodd" stroke="none" opacity="0.2" d="M 1017 236 C 1017 236 1015.614868 356.160736 1161 347 C 1306.385132 337.839264 1225.382324 451.375427 1392 460 C 1558.617676 468.624573 1455 205 1455 205 L 1146 182 L 1017 236 Z"/>
            <path id="path2" fill="#ffffff" fill-rule="evenodd" stroke="none" opacity="0.2" d="M 1015 783 C 1015 783 844.290588 737.201233 945 693 C 1045.709473 648.798767 1040.216064 671.867188 1086 683 C 1153.158936 699.330322 1186.054565 715.632446 1263 791 C 1339.945435 866.367554 1015 783 1015 783 Z"/>
            <path id="path3" fill="#ffffff" fill-rule="evenodd" stroke="none" opacity="0.2" d="M 811 328 C 811 328 957.321838 459.795013 1087 489 C 1216.678223 518.204956 1432.210205 586.656372 1310 632 C 1187.789795 677.343628 1053.301392 565.081421 958 567 C 862.698547 568.918579 632 446 632 446"/>
            <path id="path4" fill="#ffffff" fill-rule="evenodd" stroke="none" opacity="0.2" d="M 583 522 C 583 522 721.369995 557.090942 751 663 C 780.630005 768.909058 773.287903 773.900208 816 810 C 858.712097 846.099792 495 787 495 787 C 495 787 492.622742 724.552551 559 673 C 610.643738 632.890381 499 581 499 581"/>
            <path id="path5" fill="#ffffff" fill-rule="evenodd" stroke="none" opacity="0.2" d="M 576 536 C 576 536 695.498718 585.664795 718 652 C 740.501282 718.335205 759 784 759 784 L 623 784 C 623 784 663.017212 723.67511 632 672 C 600.982788 620.32489 538 578 538 578 L 576 536 Z"/>
            <path id="path6" fill="#ffffff" fill-rule="evenodd" stroke="none" opacity="0.2" d="M 819 384 C 819 384 900.818481 392.667755 955 468 C 1009.181519 543.332275 937.905334 547.952087 883 522 C 828.094666 496.047913 810.397583 508.198761 759 441 C 707.602417 373.801239 819 384 819 384 Z"/>
        </g>
    </g>
    <g id="Stars">
        <path id="Star" fill="#ffe657" fill-rule="evenodd" stroke="none" d="M 154.5 81 L 146.348679 102.348694 L 125 110.5 L 146.348679 118.651306 L 154.5 140 L 162.651306 118.651306 L 184 110.5 L 162.651306 102.348694 Z"/>
        <path id="Star-copy" fill="#ffe657" fill-rule="evenodd" stroke="none" d="M 90 328 L 83.368423 345.368408 L 66 352 L 83.368423 358.631592 L 90 376 L 96.631577 358.631592 L 114 352 L 96.631577 345.368408 Z"/>
        <path id="Star-copy-2" fill="#ffe657" fill-rule="evenodd" stroke="none" d="M 526 204 L 521.302612 216.302612 L 509 221 L 521.302612 225.697388 L 526 238 L 530.697388 225.697388 L 543 221 L 530.697388 216.302612 Z"/>
        <path id="Star-copy-3" fill="#ffe657" fill-rule="evenodd" stroke="none" d="M 279.5 317 L 271.348694 338.348694 L 250 346.5 L 271.348694 354.651306 L 279.5 376 L 287.651306 354.651306 L 309 346.5 L 287.651306 338.348694 Z"/>
        <path id="Star-copy-11" fill="#ffe657" fill-rule="evenodd" stroke="none" d="M 492 442 L 488.684204 450.684204 L 480 454 L 488.684204 457.315796 L 492 466 L 495.315796 457.315796 L 504 454 L 495.315796 450.684204 Z"/>
        <path id="Star-copy-12" fill="#ffe657" fill-rule="evenodd" stroke="none" d="M 1257 42 L 1250.368408 59.368408 L 1233 66 L 1250.368408 72.631592 L 1257 90 L 1263.631592 72.631592 L 1281 66 L 1263.631592 59.368408 Z"/>
        <path id="Star-copy-7" fill="#ffe657" fill-rule="evenodd" stroke="none" d="M 926 51 L 921.302612 63.302612 L 909 68 L 921.302612 72.697388 L 926 85 L 930.697388 72.697388 L 943 68 L 930.697388 63.302612 Z"/>
        <path id="Star-copy-8" fill="#ffe657" fill-rule="evenodd" stroke="none" d="M 631.5 346 L 623.348694 367.348694 L 602 375.5 L 623.348694 383.651306 L 631.5 405 L 639.651306 383.651306 L 661 375.5 L 639.651306 367.348694 Z"/>
        <path id="Star-copy-9" fill="#ffe657" fill-rule="evenodd" stroke="none" d="M 794 197 L 790.684204 205.684204 L 782 209 L 790.684204 212.315796 L 794 221 L 797.315796 212.315796 L 806 209 L 797.315796 205.684204 Z"/>
        <path id="Star-copy-10" fill="#ffe657" fill-rule="evenodd" stroke="none" d="M 614 51 L 610.684204 59.684204 L 602 63 L 610.684204 66.315796 L 614 75 L 617.315796 66.315796 L 626 63 L 617.315796 59.684204 Z"/>
        <path id="Star-copy-4" fill="#ffe657" fill-rule="evenodd" stroke="none" d="M 410 145 L 405.302643 157.302612 L 393 162 L 405.302643 166.697388 L 410 179 L 414.697357 166.697388 L 427 162 L 414.697357 157.302612 Z"/>
        <path id="Star-copy-5" fill="#ffe657" fill-rule="evenodd" stroke="none" d="M 87.5 614 L 79.348686 635.348694 L 58 643.5 L 79.348686 651.651306 L 87.5 673 L 95.651314 651.651306 L 117 643.5 L 95.651314 635.348694 Z"/>
        <path id="Star-copy-6" fill="#ffe657" fill-rule="evenodd" stroke="none" d="M 321 530 L 317.684204 538.684204 L 309 542 L 317.684204 545.315796 L 321 554 L 324.315796 545.315796 L 333 542 L 324.315796 538.684204 Z"/>
    </g>
</svg>
