<?xml version="1.0" encoding="UTF-8"?>
<!-- Generated by Pixelmator Pro 3.7.1 -->
<svg width="1920" height="1080" viewBox="0 0 1920 1080" xmlns="http://www.w3.org/2000/svg">
    <path id="Path" fill="none" stroke="#f6c025" stroke-width="100" stroke-linecap="round" d="M -46 718 C -46 718 200.668411 506.671143 541 583 C 881.331604 659.328857 987.407104 795.046509 1286 698 C 1584.592896 600.953491 1966 646 1966 646"/>
    <path id="path1" fill="none" stroke="#f625ec" stroke-width="100" stroke-linecap="round" d="M 1977 960 C 1977 960 1897.232544 740.680237 1387 901 C 876.767456 1061.319824 816.341675 831.510376 520 716 C 223.658325 600.489685 -94 540 -94 540"/>
    <path id="path2" fill="none" stroke="#7125f6" stroke-width="100" stroke-linecap="round" d="M -134 1067 C -134 1067 -58.579041 791.446045 414 896 C 886.579041 1000.553955 1090.81604 627.158813 1422 828 C 1753.18396 1028.841187 1759.088379 1092.055664 1977 1092"/>
</svg>
