<?xml version="1.0" encoding="UTF-8"?>
<!-- Generated by Pixelmator Pro 3.7.1 -->
<svg width="1024" height="1024" viewBox="0 0 1024 1024" xmlns="http://www.w3.org/2000/svg">
    <linearGradient id="linearGradient1" x1="149.961328" y1="149.961328" x2="874.038672" y2="874.038672" gradientUnits="userSpaceOnUse">
        <stop offset="0" stop-color="#bc95ff" stop-opacity="1"/>
        <stop offset="1" stop-color="#b550ff" stop-opacity="1"/>
    </linearGradient>
    <path id="Rounded-Rectangle" fill="url(#linearGradient1)" fill-rule="evenodd" stroke="none" d="M 0 764 C 0 907.594055 116.405968 1024 260 1024 L 764 1024 C 907.594055 1024 1024 907.594055 1024 764 L 1024 260 C 1024 116.405945 907.594055 0 764 0 L 260 0 C 116.405968 0 0 116.405945 0 260 Z"/>
    <g id="A-Mark">
        <g id="Path">
            <path id="path1" fill="#29005b" stroke="none" d="M 285.48999 843.390015 C 267.410004 843.390015 249.759995 838.690002 233.740005 829.400024 C 171.360001 793.190002 143.770004 727.289978 165.080002 665.400024 C 178.020004 627.830017 202.809998 604.289978 243.119995 591.299988 C 276.950012 580.400024 319.929993 577.690002 369.690002 574.570007 L 375.459991 574.210022 C 385.570007 573.570007 395.73999 572.530029 405.910004 571.140015 C 405.850006 559.98999 405.480011 548.5 404.779999 536.640015 C 399.829987 452.51001 379.230011 363.820007 362.679993 292.559998 C 355.880005 263.280029 349.459991 235.630005 344.850006 211.609985 C 342.470001 199.210022 350.48999 187.440002 363.910004 183.630005 C 377.679993 179.719971 390.98999 185.559998 395.549988 197.52002 C 446.940002 332.349976 500.019989 445.190002 551.75 530.75 C 597.049988 512.75 638.77002 491.709961 673 472.609985 C 756.659973 425.920044 815.150024 380.209961 815.72998 379.75 C 824.849976 372.589966 838.049988 374.170044 845.210022 383.290039 C 852.380005 392.410034 850.799988 405.609985 841.679993 412.77002 C 839.219971 414.700012 780.47998 460.660034 694.090027 508.929993 C 653.390015 531.669983 613.320007 551.109985 574.599976 566.909973 C 608.830017 618.559998 642.25 657.690002 673.960022 682.73999 C 701.289978 704.320007 720.26001 709.809998 746.460022 703.73999 C 763.179993 699.859985 781.859985 685.539978 800.469971 662.320007 C 815.75 643.26001 825.27002 625.140015 825.359985 624.960022 C 830.719971 614.690002 843.400024 610.690002 853.679993 616.039978 C 863.960022 621.390015 867.969971 634.049988 862.630005 644.330017 C 862.179993 645.190002 851.450012 665.72998 833.77002 687.929993 C 808.700012 719.409973 782.51001 738.48999 755.950012 744.650024 C 746.109985 746.929993 736.900024 747.950012 728.25 747.950012 C 694.169983 747.950012 668.789978 732.159973 647.940002 715.700012 C 611.130005 686.630005 573.080017 641.890015 534.349976 582.190002 C 504.23999 592.73999 475.049988 600.919983 446.98999 606.690002 C 442.880005 677.590027 425.01001 735.109985 392.950012 781.23999 C 374.809998 807.330017 349.950012 827.039978 322.950012 836.73999 C 310.529999 841.200012 297.910004 843.419983 285.48999 843.419983 Z M 404.429993 613.679993 C 395.519989 614.76001 386.73999 615.580017 378.109985 616.119995 L 372.329987 616.47998 C 325.380005 619.429993 284.839996 621.97998 256.01001 631.27002 C 228.610001 640.099976 213.289993 654.400024 204.789993 679.070007 C 189.979996 722.080017 209.619995 766.830017 254.820007 793.070007 C 275.470001 805.059998 295.549988 801.919983 308.75 797.179993 C 327.609985 790.409973 345.26001 776.219971 358.459991 757.23999 C 384.619995 719.609985 399.829987 672.25 404.420013 613.669983 Z M 424.290009 376.150024 C 434.630005 426.820007 443.589996 481.030029 446.709991 534.159973 C 447.299988 544.159973 447.670013 553.940002 447.829987 563.5 C 469.339996 558.659973 490.700012 552.52002 511.579987 545.48999 C 503.459991 531.840027 495.309998 517.539978 487.140015 502.609985 C 466.089996 464.130005 445.089996 421.880005 424.290009 376.140015 Z"/>
            <path id="path2" fill="#29005b" fill-rule="evenodd" stroke="none" d="M 227.715698 839.778259 C 241.957321 848.036987 257.449921 853.086853 273.48999 854.765564 L 273.48999 855.419983 L 285.48999 855.419983 C 299.371063 855.419983 313.360443 852.933838 327.005646 848.033875 C 356.421509 837.465942 383.276428 816.17395 402.802582 788.090332 C 434.842529 741.989136 453.158722 685.293518 458.359497 616.531372 C 481.412445 611.422607 505.138397 604.758728 529.42804 596.570923 C 567.071655 653.411316 604.207092 696.453552 640.502747 725.117432 C 653.615479 735.469238 665.380981 743.10968 678.168152 748.921936 C 694.017151 756.125916 710.518982 759.950012 728.25 759.950012 C 738.07019 759.950012 748.193298 758.765198 758.658691 756.340332 C 788.184204 749.492493 816.541199 728.826599 843.156982 695.405579 C 851.234558 685.262939 858.499634 674.755371 864.872681 664.43042 C 867.138367 660.759827 869.143066 657.349182 870.877502 654.263794 C 871.506226 653.145325 872.062073 652.135803 872.545715 651.239868 C 872.860901 650.655945 873.064148 650.272339 873.262329 649.893677 C 881.672729 633.702759 875.374756 613.802795 859.219849 605.395264 C 843.066772 596.98877 823.146118 603.266235 814.72168 619.407837 L 814.677429 619.493042 C 814.677002 619.492859 814.658997 619.526855 814.648315 619.547058 L 814.641174 619.560486 C 814.562622 619.708008 814.463562 619.892212 814.347046 620.106628 C 814.011169 620.724915 813.606201 621.455566 813.13739 622.284119 C 811.792358 624.661499 810.211304 627.336304 808.413452 630.235107 C 803.288391 638.498291 797.471863 646.875 791.107239 654.814087 C 774.029419 676.122314 757.384399 688.886047 743.747375 692.050598 C 721.394592 697.229309 706.043579 692.783569 681.396545 673.322021 C 653.436462 651.234375 623.613831 617.279297 592.740784 572.343628 C 627.680847 557.44928 663.580872 539.722107 699.943054 519.405762 C 738.198914 498.030487 773.898987 475.580383 806.165771 453.355011 C 817.631104 445.457733 827.902039 438.107635 836.871765 431.464539 C 840.105957 429.069244 842.972046 426.912598 845.459839 425.012177 C 846.378845 424.31015 847.197327 423.680389 847.916321 423.12326 C 848.408936 422.741516 848.782471 422.450134 849.087036 422.211212 C 863.426636 410.953278 865.910828 390.204895 854.643677 375.873444 C 843.39624 361.547119 822.65271 359.058624 808.319763 370.31134 C 807.038269 371.327484 802.917297 374.466766 797.815674 378.237579 C 789.369385 384.480591 779.623047 391.447998 768.713928 398.960541 C 737.63385 420.363831 703.43103 441.884369 667.151978 462.131409 C 631.067566 482.266113 594.019165 500.469269 556.7724 515.7771 C 506.815826 431.50351 455.891296 322.141907 406.763123 193.24617 C 399.88623 175.209412 380.14679 166.54512 360.632141 172.086365 C 341.441467 177.534683 329.464935 195.114716 333.065125 213.871933 C 336.963196 234.182663 340.961487 252.088333 350.991089 295.274628 C 356.177979 317.608002 358.56134 327.962097 361.520447 341.154694 C 374.116577 397.312256 382.551483 442.043488 387.94931 485.39325 C 390.195465 503.431854 391.822968 520.727051 392.80072 537.344849 C 393.264984 545.210632 393.583649 552.946106 393.758606 560.55896 C 387.327301 561.277527 380.972198 561.837036 374.701843 562.234009 L 368.94278 562.593323 C 332.409851 564.883911 317.105377 566.0271 299.064331 568.095642 C 275.31839 570.818237 256.127747 574.501404 239.439926 579.878235 C 195.600143 594.005676 167.928268 620.280945 153.734116 661.492249 C 130.488571 729.00354 160.540512 800.784729 227.715698 839.778259 Z M 233.740005 829.400024 C 249.759995 838.690002 267.410004 843.390015 285.48999 843.390015 L 285.48999 843.419983 C 297.910004 843.419983 310.529999 841.200012 322.950012 836.73999 C 349.950012 827.039978 374.809998 807.330017 392.950012 781.23999 C 425.01001 735.109985 442.880005 677.590027 446.98999 606.690002 C 475.049988 600.919983 504.23999 592.73999 534.349976 582.190002 C 573.080017 641.890015 611.130005 686.630005 647.940002 715.700012 C 668.789978 732.159973 694.169983 747.950012 728.25 747.950012 C 736.900024 747.950012 746.109985 746.929993 755.950012 744.650024 C 782.51001 738.48999 808.700012 719.409973 833.77002 687.929993 C 851.450012 665.72998 862.179993 645.190002 862.630005 644.330017 C 867.969971 634.049988 863.960022 621.390015 853.679993 616.039978 C 843.400024 610.690002 830.719971 614.690002 825.359985 624.960022 C 825.27002 625.140015 815.75 643.26001 800.469971 662.320007 C 781.859985 685.539978 763.179993 699.859985 746.460022 703.73999 C 720.26001 709.809998 701.289978 704.320007 673.960022 682.73999 C 642.25 657.690002 608.830017 618.559998 574.599976 566.909973 C 613.320007 551.109985 653.390015 531.669983 694.090027 508.929993 C 780.47998 460.660034 839.219971 414.700012 841.679993 412.77002 C 850.799988 405.609985 852.380005 392.410034 845.210022 383.290039 C 838.049988 374.170044 824.849976 372.589966 815.72998 379.75 C 815.150024 380.209961 756.659973 425.920044 673 472.609985 C 638.77002 491.709961 597.049988 512.75 551.75 530.75 C 500.019989 445.190002 446.940002 332.349976 395.549988 197.52002 C 390.98999 185.559998 377.679993 179.719971 363.910004 183.630005 C 350.48999 187.440002 342.470001 199.210022 344.850006 211.609985 C 349.459991 235.630005 355.880005 263.280029 362.679993 292.559998 C 379.230011 363.820007 399.829987 452.51001 404.779999 536.640015 C 405.480011 548.5 405.850006 559.98999 405.910004 571.140015 C 395.73999 572.530029 385.570007 573.570007 375.459991 574.210022 L 369.690002 574.570007 C 319.929993 577.690002 276.950012 580.400024 243.119995 591.299988 C 202.809998 604.289978 178.020004 627.830017 165.080002 665.400024 C 143.770004 727.289978 171.360001 793.190002 233.740005 829.400024 Z M 446.709991 534.159973 C 443.589996 481.030029 434.630005 426.820007 424.290009 376.150024 L 424.290009 376.140015 C 445.089996 421.880005 466.089996 464.130005 487.140015 502.609985 C 495.309998 517.539978 503.459991 531.840027 511.579987 545.48999 C 490.700012 552.52002 469.339996 558.659973 447.829987 563.5 C 447.670013 553.940002 447.299988 544.159973 446.709991 534.159973 Z M 476.612274 508.369049 C 468.1185 492.842163 459.637665 476.715057 451.179169 460.006592 C 454.792542 485.600189 457.305969 509.899353 458.689148 533.453186 C 458.985382 538.473816 459.227966 543.455383 459.417175 548.3974 C 470.70993 545.548523 482.135803 542.307678 493.676178 538.692383 C 488.00061 528.89386 482.311707 518.784302 476.612274 508.369049 Z M 404.419128 613.681335 C 404.42276 613.680908 404.426361 613.68042 404.429993 613.679993 L 404.420013 613.669983 C 404.419708 613.673767 404.419434 613.677551 404.419128 613.681335 Z M 378.109985 616.119995 C 386.736481 615.580261 395.512848 614.760681 404.419128 613.681335 C 399.828033 672.256104 384.618317 719.612427 358.459991 757.23999 C 345.26001 776.219971 327.609985 790.409973 308.75 797.179993 C 295.549988 801.919983 275.470001 805.059998 254.820007 793.070007 C 209.619995 766.830017 189.979996 722.080017 204.789993 679.070007 C 213.289993 654.400024 228.610001 640.099976 256.01001 631.27002 C 284.839996 621.97998 325.380005 619.429993 372.329987 616.47998 L 378.109985 616.119995 Z M 348.606995 750.390259 C 371.343964 717.684143 385.435547 677.013611 391.079163 627.160583 C 386.960449 627.53241 382.886017 627.844666 378.855927 628.096802 L 373.082489 628.45636 C 338.902496 630.604004 324.856354 631.638123 308.693512 633.424805 C 288.12204 635.698914 272.281586 638.634399 259.690735 642.691589 C 235.7892 650.394104 223.368591 661.985962 216.136185 682.976929 C 203.292908 720.27533 220.37471 759.197937 260.84552 782.692444 C 275.098877 790.968384 289.997406 791.163635 304.69574 785.88562 C 321.104004 779.995667 336.776093 767.401672 348.606995 750.390259 Z"/>
        </g>
    </g>
</svg>
